<?xml version="1.0" standalone="no"?>
<!DOCTYPE svg PUBLIC "-//W3C//DTD SVG 20010904//EN"
 "http://www.w3.org/TR/2001/REC-SVG-20010904/DTD/svg10.dtd">
<svg version="1.0" xmlns="http://www.w3.org/2000/svg"
 width="1350.000000pt" height="1209.000000pt" viewBox="0 0 1350.000000 1209.000000"
 preserveAspectRatio="xMidYMid meet">
<metadata>
Created by potrace 1.10, written by Peter Selinger 2001-2011
</metadata>
<g transform="translate(0.000000,1209.000000) scale(0.100000,-0.100000)"
fill="#4C585B" stroke="none">
<path d="M11425 11320 c-38 -4 -963 -11 -2055 -15 -1420 -5 -1989 -11 -1999
-19 -14 -11 -70 -92 -146 -210 -22 -34 -65 -96 -95 -138 -30 -42 -120 -170
-200 -284 -80 -114 -174 -248 -209 -298 -67 -95 -82 -116 -222 -306 -46 -63
-93 -128 -104 -145 -10 -16 -98 -137 -194 -267 -97 -130 -212 -287 -256 -348
-44 -62 -172 -236 -285 -388 -113 -153 -243 -329 -289 -392 -46 -63 -109 -149
-141 -190 -33 -41 -92 -122 -132 -178 -40 -57 -111 -156 -158 -220 -47 -65
-101 -142 -120 -172 -49 -79 -123 -181 -210 -290 -150 -188 -152 -195 -53
-185 38 4 102 13 143 21 41 8 91 14 110 14 41 0 216 25 310 45 161 34 474 81
730 111 25 3 68 9 95 14 28 5 100 16 160 25 61 9 144 23 185 31 41 8 98 19
125 24 28 5 100 17 160 25 61 9 124 20 142 24 49 14 125 105 298 361 53 80
147 213 208 295 61 83 127 173 147 200 20 28 48 67 63 87 15 20 27 39 27 42 0
2 48 71 107 153 58 81 131 186 163 233 31 47 96 140 146 207 49 67 119 168
157 225 62 96 232 335 337 476 25 33 63 86 85 118 22 31 49 63 61 70 16 11 82
15 275 19 140 3 332 7 427 10 197 5 188 10 153 -87 -10 -29 -33 -100 -51 -158
-18 -58 -38 -121 -45 -140 -7 -19 -20 -62 -30 -95 -15 -56 -91 -301 -119 -390
-8 -22 -18 -56 -24 -75 -18 -63 -84 -274 -97 -310 -7 -19 -21 -62 -31 -95 -9
-33 -28 -91 -41 -130 -14 -38 -29 -83 -33 -100 -67 -227 -151 -479 -164 -492
-3 -4 -6 -15 -6 -26 0 -17 5 -18 38 -13 71 13 379 113 602 196 47 17 123 44
170 60 162 55 365 137 505 205 61 29 117 55 125 59 8 3 31 16 50 27 76 47 388
207 435 224 28 10 58 25 67 33 17 14 53 85 69 132 4 14 24 70 44 125 41 114
129 377 170 510 16 50 39 122 52 160 14 39 28 84 33 100 5 17 78 235 163 485
177 524 191 566 213 640 18 61 71 214 103 300 12 30 19 61 16 68 -5 13 -47 14
-160 2z"/>
<path d="M5111 11283 c-29 -20 -107 -124 -114 -151 -9 -37 11 -86 53 -135 69
-78 28 -74 828 -78 l713 -4 55 60 c30 33 73 83 95 112 21 29 66 85 99 124 33
39 57 75 54 80 -3 5 -376 9 -884 8 -734 -2 -883 -4 -899 -16z"/>
<path d="M4124 11271 c-144 -26 -161 -47 -152 -186 3 -49 9 -71 24 -86 33 -32
126 -50 302 -56 186 -6 224 2 282 62 32 33 34 39 33 103 -1 74 -26 148 -51
156 -38 12 -192 26 -267 25 -44 -1 -121 -9 -171 -18z"/>
<path d="M11823 10718 c-6 -7 -13 -31 -16 -53 -4 -22 -16 -71 -27 -110 -12
-38 -25 -83 -30 -100 -14 -49 -32 -98 -46 -127 -16 -31 -18 -64 -4 -73 16 -10
74 -116 95 -175 18 -48 20 -80 20 -260 0 -269 -17 -345 -131 -585 -32 -69
-133 -230 -153 -245 -4 -3 -24 -27 -46 -55 -73 -94 -257 -259 -390 -350 -69
-47 -361 -225 -370 -225 -2 0 -39 -21 -82 -46 -131 -77 -465 -233 -643 -299
-35 -13 -139 -54 -239 -95 -83 -34 -478 -165 -621 -207 -30 -8 -71 -21 -90
-28 -19 -7 -62 -21 -95 -30 -33 -10 -76 -23 -95 -30 -40 -15 -123 -36 -230
-60 -90 -19 -179 -42 -240 -60 -52 -15 -143 -37 -250 -60 -41 -9 -102 -22
-135 -30 -59 -13 -142 -31 -280 -60 -38 -8 -110 -21 -160 -30 -49 -9 -121 -22
-160 -30 -93 -18 -226 -41 -355 -60 -58 -9 -136 -22 -175 -30 -38 -7 -119 -21
-180 -30 -60 -8 -139 -22 -175 -30 -36 -7 -105 -21 -155 -30 -49 -9 -121 -23
-160 -30 -114 -21 -224 -37 -320 -45 -186 -16 -333 -31 -425 -45 -257 -37
-314 -45 -430 -60 -228 -29 -677 -75 -733 -75 -53 0 -166 -13 -397 -45 -58 -8
-170 -20 -250 -26 -383 -29 -542 -44 -635 -60 -33 -5 -116 -14 -185 -19 -69
-6 -132 -12 -140 -15 -36 -11 -467 -37 -725 -44 -317 -9 -334 -13 -384 -82
-39 -53 -39 -77 1 -118 68 -69 29 -66 783 -65 374 0 817 6 985 12 168 7 431
17 585 23 348 13 539 25 630 38 39 6 92 11 119 11 27 0 88 7 135 15 81 14 350
38 561 50 261 15 662 58 935 100 141 22 289 43 425 60 160 21 299 43 375 60
149 32 327 68 455 91 52 9 118 22 145 29 28 7 86 21 130 30 44 9 103 23 130
30 28 7 86 20 130 30 44 9 107 24 140 32 141 36 164 42 235 58 161 35 209 45
305 69 241 59 458 117 560 150 61 20 135 44 165 53 30 8 71 21 90 28 19 7 71
24 115 38 44 14 118 39 165 57 47 17 96 35 110 39 14 5 59 24 100 44 41 19
118 51 170 72 164 63 174 67 237 96 35 16 65 29 68 29 3 0 40 20 83 44 42 24
109 60 147 81 39 21 86 48 105 60 19 12 42 25 50 28 8 4 29 15 45 25 17 10 62
36 100 56 39 21 77 44 85 50 8 7 51 34 95 61 240 146 506 384 694 619 194 242
271 393 337 656 15 60 19 111 19 260 -1 183 -5 214 -46 375 -43 165 -165 382
-308 547 -107 124 -132 146 -148 126z"/>
<path d="M4225 10410 c-319 -4 -520 -10 -555 -17 -30 -7 -116 -17 -190 -23
-205 -17 -218 -19 -213 -39 2 -10 -7 -31 -21 -48 -18 -22 -26 -43 -26 -70 0
-75 48 -96 270 -117 91 -9 194 -24 230 -32 55 -14 200 -17 985 -24 506 -4 990
-5 1075 -2 l155 5 35 36 c19 20 64 74 100 121 36 46 84 108 108 138 24 29 41
59 39 66 -5 13 -1084 17 -1992 6z"/>
<path d="M8702 9604 c-12 -8 -78 -100 -147 -202 -128 -193 -327 -481 -375
-542 -15 -19 -68 -96 -118 -170 -101 -151 -194 -280 -328 -456 -169 -223 -274
-389 -274 -435 0 -18 6 -19 113 -14 61 4 168 12 237 20 69 7 188 17 265 20 77
4 147 11 156 16 10 5 24 28 32 51 9 24 25 68 37 98 12 30 30 84 42 120 11 36
26 81 33 100 7 19 18 51 24 70 7 19 17 49 21 65 5 17 19 62 33 100 13 39 34
104 47 145 27 91 119 386 155 495 14 44 30 94 35 110 8 28 15 51 45 135 7 19
27 80 44 135 18 55 36 108 41 117 6 10 10 22 10 28 0 16 -103 12 -128 -6z"/>
<path d="M3155 9549 c-63 -21 -152 -21 -260 0 -27 5 -113 10 -189 10 l-139 1
-40 -42 c-55 -58 -71 -100 -56 -146 16 -52 55 -100 93 -116 26 -11 144 -15
528 -21 547 -8 521 -11 584 57 66 71 66 148 -1 225 l-32 37 -119 7 c-210 13
-303 10 -369 -12z"/>
<path d="M4246 9544 c-50 -34 -116 -130 -116 -168 0 -49 63 -134 116 -157 42
-19 66 -20 532 -17 370 3 495 7 519 17 31 12 84 68 134 143 14 21 56 70 93
108 45 46 66 75 62 85 -5 14 -82 15 -655 14 l-650 -2 -35 -23z"/>
<path d="M4890 8730 c-25 -4 -547 -8 -1160 -9 l-1115 -2 -38 -24 c-95 -64
-123 -156 -68 -231 59 -83 33 -79 506 -80 231 0 690 -4 1021 -9 449 -6 609 -5
635 4 24 8 53 33 90 78 30 37 89 109 132 160 101 122 101 130 -3 113z"/>
<path d="M11988 8064 c-26 -8 -76 -34 -110 -59 -155 -110 -216 -149 -413 -267
-210 -125 -235 -139 -418 -238 -55 -29 -118 -72 -142 -95 -53 -54 -68 -114
-31 -128 7 -3 170 -8 362 -12 413 -8 532 0 594 41 116 77 236 326 290 602 16
85 13 120 -15 147 -27 28 -50 30 -117 9z"/>
<path d="M2153 7880 c-40 -9 -94 -49 -125 -92 -47 -66 -18 -143 78 -210 l39
-28 375 -5 c206 -2 445 -9 530 -14 168 -10 451 -16 791 -16 l216 0 34 30 c20
17 49 48 67 70 17 22 71 85 121 140 50 55 91 105 91 111 0 9 -285 12 -1087 13
-597 1 -1089 3 -1092 5 -3 1 -21 0 -38 -4z"/>
<path d="M10331 7131 c-65 -44 -262 -124 -406 -166 -79 -23 -246 -79 -315
-105 -30 -11 -82 -30 -115 -41 -33 -11 -73 -24 -90 -30 -68 -23 -226 -67 -285
-79 -25 -5 -88 -19 -140 -31 -52 -11 -111 -24 -130 -29 -19 -4 -71 -18 -115
-30 -44 -12 -93 -26 -110 -30 -16 -4 -92 -24 -168 -44 -216 -56 -221 -60 -237
-152 -13 -75 -32 -146 -87 -314 -23 -74 -50 -160 -59 -190 -9 -30 -23 -70 -30
-88 -8 -18 -14 -38 -14 -45 0 -7 -23 -73 -51 -147 -27 -74 -63 -173 -79 -220
-16 -47 -39 -110 -50 -140 -42 -109 -51 -135 -60 -160 -5 -14 -18 -50 -30 -80
-39 -101 -42 -110 -36 -125 5 -13 112 -14 853 -12 l848 3 60 23 c105 39 199
89 226 118 49 52 107 187 162 373 9 30 36 116 61 190 24 74 58 182 76 240 37
122 41 136 121 380 56 174 73 230 105 340 38 136 44 158 44 169 0 7 6 27 14
44 32 75 39 97 72 225 50 195 47 207 -35 153z"/>
<path d="M10683 6703 c-7 -2 -13 -12 -13 -21 0 -30 -32 -165 -61 -257 -15 -50
-30 -106 -31 -125 l-3 -35 100 3 c55 2 258 7 450 11 330 6 352 8 390 28 74 40
145 135 145 195 0 46 -31 116 -67 150 -60 57 -66 58 -500 57 -219 0 -404 -3
-410 -6z"/>
<path d="M7680 6339 c-30 -5 -100 -15 -155 -22 -55 -8 -127 -25 -160 -39 -61
-25 -99 -34 -280 -63 -189 -30 -280 -46 -335 -57 -30 -6 -140 -12 -245 -14
-218 -5 -287 -16 -316 -52 -10 -14 -19 -31 -19 -38 0 -17 -24 -90 -62 -187
-24 -59 -45 -93 -94 -146 -57 -62 -264 -354 -264 -373 0 -4 -14 -30 -31 -58
-43 -70 -35 -85 31 -53 100 48 178 60 510 78 323 18 492 17 800 -5 85 -6 175
-18 200 -26 25 -8 59 -14 76 -14 33 0 38 6 74 100 12 30 28 70 36 88 8 18 14
41 14 50 0 10 4 22 9 27 10 10 22 41 66 170 13 39 34 95 45 125 12 30 25 67
30 81 13 42 41 92 71 127 16 18 41 56 55 84 23 46 26 60 20 118 -3 36 -1 72 4
80 8 13 -5 32 -20 29 -3 -1 -30 -5 -60 -10z"/>
<path d="M5605 6129 c-91 -16 -462 -42 -815 -59 -118 -5 -336 -17 -484 -25
-256 -15 -557 -15 -637 0 -34 7 -36 6 -76 -57 -44 -67 -115 -165 -174 -238
-30 -38 -134 -195 -189 -284 -88 -145 -194 -302 -282 -422 -102 -137 -118
-164 -100 -164 4 0 465 -1 1025 -2 l1017 -1 26 24 c37 34 126 153 226 304 48
72 127 189 177 260 49 72 120 175 158 230 80 119 144 205 193 262 45 51 120
160 120 173 0 12 -115 11 -185 -1z"/>
<path d="M10392 5737 c-6 -6 -13 -26 -17 -42 -7 -29 -53 -185 -81 -273 -8 -23
-14 -56 -14 -73 l0 -31 288 7 c335 8 359 12 435 88 27 26 57 68 68 92 19 44
20 47 2 101 -12 38 -31 71 -60 100 l-42 44 -284 0 c-216 0 -287 -3 -295 -13z"/>
<path d="M4195 3981 c-33 -5 -71 -13 -85 -19 -14 -5 -45 -18 -70 -27 -238 -94
-383 -226 -464 -425 -55 -136 -68 -193 -73 -330 -9 -227 60 -438 194 -595 102
-121 233 -206 403 -262 81 -26 94 -28 270 -28 211 0 255 10 404 87 67 36 102
64 203 167 115 117 122 126 107 143 -9 9 -26 20 -38 24 -33 10 -259 124 -277
140 -29 27 -56 17 -78 -28 -23 -48 -83 -92 -166 -123 -69 -26 -226 -26 -287
-1 -91 39 -113 53 -168 107 -73 72 -110 149 -124 257 -40 323 179 553 479 502
112 -19 188 -62 251 -140 29 -35 57 -66 62 -68 11 -3 178 98 252 153 30 23 63
44 73 48 39 15 20 54 -76 150 -119 120 -231 195 -367 244 -55 20 -89 24 -215
28 -82 2 -177 0 -210 -4z"/>
<path d="M5665 3970 l-260 -5 0 -195 0 -195 255 -3 c140 -1 258 -6 261 -10 4
-4 9 -285 11 -624 2 -373 8 -622 13 -627 6 -5 101 -11 213 -13 172 -2 204 -1
212 12 6 9 10 257 10 627 0 595 1 613 19 623 12 6 106 10 236 10 163 0 217 3
220 13 3 6 6 96 8 198 l3 186 -291 6 c-296 7 -450 7 -910 -3z"/>
<path d="M7530 3971 l-35 -6 -7 -70 c-10 -105 -30 -1577 -21 -1586 8 -8 420
-16 426 -8 2 2 10 344 17 759 7 415 15 789 17 831 4 73 4 77 -19 83 -29 7
-331 5 -378 -3z"/>
<path d="M8340 3968 c0 -6 20 -45 44 -87 24 -42 65 -116 91 -166 27 -49 57
-106 68 -125 10 -19 27 -51 38 -70 23 -44 199 -410 199 -415 0 -2 17 -41 39
-87 74 -157 99 -213 121 -268 12 -30 28 -68 35 -85 22 -49 71 -173 107 -270
l34 -90 203 0 203 0 18 35 c10 19 25 51 34 70 8 19 46 101 85 181 38 81 81
174 95 208 14 33 35 76 45 94 11 19 36 75 56 123 44 108 62 146 96 204 14 25
36 73 48 105 13 33 47 110 76 170 30 61 70 148 89 195 19 47 53 121 75 165 23
44 41 90 41 102 l0 23 -231 -2 c-194 -3 -233 -5 -239 -18 -19 -40 -92 -212
-112 -265 -34 -87 -82 -203 -109 -263 -16 -34 -29 -65 -29 -68 0 -3 -40 -87
-88 -187 -48 -100 -97 -203 -108 -229 -10 -27 -23 -47 -27 -45 -5 1 -18 25
-29 52 -11 28 -37 86 -58 130 -39 84 -147 337 -219 515 -23 58 -46 112 -51
121 -5 9 -27 61 -50 115 -68 161 -28 144 -330 144 -191 0 -260 -3 -260 -12z"/>
<path d="M10650 3966 c-5 -191 3 -1653 9 -1659 5 -5 123 -8 262 -8 140 1 443
-3 673 -9 335 -8 421 -8 428 2 4 7 8 97 8 200 l0 188 -26 6 c-14 4 -221 3
-461 -2 -324 -7 -437 -6 -444 2 -5 7 -8 56 -7 110 l3 99 403 3 402 2 0 184 c0
153 -2 185 -15 190 -8 3 -188 8 -400 12 -212 4 -388 10 -390 14 -10 15 -7 262
3 268 11 8 57 8 571 3 281 -2 345 -1 350 11 4 7 4 96 1 198 l-5 185 -280 2
c-154 1 -461 3 -682 6 -286 3 -403 1 -403 -7z"/>
<path d="M2267 3963 l-47 -4 -108 -217 c-59 -119 -124 -255 -144 -302 -20 -47
-75 -163 -122 -258 -47 -95 -86 -175 -86 -177 0 -7 -232 -470 -276 -553 -20
-37 -47 -81 -60 -99 -48 -64 -52 -63 231 -63 l255 0 14 33 c8 17 36 83 62 146
48 113 77 157 98 143 6 -4 139 -9 295 -12 l284 -5 31 -61 c31 -61 62 -129 90
-196 l15 -38 148 0 c81 0 192 -3 245 -7 133 -8 133 -9 38 162 -77 140 -134
252 -375 730 -144 286 -272 538 -286 560 -14 22 -42 74 -63 115 -56 108 -58
110 -130 108 -34 -1 -82 -3 -109 -5z m94 -724 c8 -32 62 -144 93 -194 38 -63
28 -69 -110 -73 -75 -3 -120 0 -127 7 -8 8 -2 31 22 83 19 40 37 82 42 93 47
120 65 139 80 84z"/>
<path d="M12652 3381 c-74 -14 -182 -146 -182 -223 0 -66 83 -183 156 -219 37
-17 57 -21 105 -16 122 11 239 127 239 237 0 65 -69 164 -139 199 -41 21 -130
32 -179 22z"/>
</g>
</svg>
