<?xml version="1.0" encoding="UTF-8"?>
<svg version="1.1" xmlns="http://www.w3.org/2000/svg" width="545" height="550">
<path d="M0 0 C179.85 0 359.7 0 545 0 C545 181.5 545 363 545 550 C365.15 550 185.3 550 0 550 C0 368.5 0 187 0 0 Z " fill="#D07A11" transform="translate(0,0)"/>
<path d="M0 0 C179.85 0 359.7 0 545 0 C545 181.5 545 363 545 550 C365.15 550 185.3 550 0 550 C0 464.2 0 378.4 0 290 C0.33 290 0.66 290 1 290 C1.06469482 290.65669678 1.12938965 291.31339355 1.19604492 291.98999023 C3.42519662 314.08059657 6.49263318 336.01286302 14 357 C14.30389648 357.86882812 14.60779297 358.73765625 14.92089844 359.6328125 C26.09180064 391.38283077 41.43903241 420.10361344 63 446 C63.43006348 446.52029785 63.86012695 447.0405957 64.30322266 447.57666016 C74.05767296 459.339679 84.33335231 470.40466589 96.34765625 479.90234375 C98.0892011 481.27967745 99.80672528 482.68805208 101.49609375 484.12890625 C141.93328416 518.53436963 192.92078654 536.74796031 245 543 C245.69013184 543.08661896 246.38026367 543.17323792 247.09130859 543.26248169 C252.20344415 543.87606718 257.23583971 544.17133581 262.3828125 544.203125 C263.15122971 544.21013931 263.91964691 544.21715363 264.71134949 544.22438049 C267.18262673 544.24179756 269.65366359 544.24823499 272.125 544.25 C272.97347504 544.25067474 273.82195007 544.25134949 274.69613647 544.25204468 C288.36081117 544.23481509 301.5329274 543.43304462 315 541 C316.43182617 540.76651855 316.43182617 540.76651855 317.89257812 540.52832031 C361.53195244 533.40671558 404.36603792 514.52568166 439 487 C439.89589844 486.29617188 440.79179687 485.59234375 441.71484375 484.8671875 C455.87304262 473.53250318 469.52666304 460.93460687 480.71484375 446.64013672 C481.62664713 445.47647883 482.54388093 444.31706685 483.46484375 443.16064453 C511.28824461 408.18191147 531.23814199 366.75501177 538.58251953 322.50195312 C538.99260321 320.04432883 539.4284101 317.59256459 539.87109375 315.140625 C540.14426423 313.59393245 540.41644727 312.04706508 540.6875 310.5 C540.80706055 309.83129883 540.92662109 309.16259766 541.04980469 308.47363281 C543.03443958 296.66361708 543.23703812 284.69731667 543.25 272.75 C543.25200912 271.64415054 543.25200912 271.64415054 543.25405884 270.51596069 C543.24871986 256.85057737 542.21711917 243.49857362 540 230 C539.88253418 229.28440918 539.76506836 228.56881836 539.64404297 227.83154297 C538.90608961 223.5187588 537.97523851 219.26445204 537 215 C536.67117624 213.43504249 536.34310204 211.86992737 536.015625 210.3046875 C527.23897999 169.65126779 507.52132748 131.87337915 481 100 C480.58057129 99.49033691 480.16114258 98.98067383 479.72900391 98.45556641 C468.71108081 85.105641 456.81234313 72.49390597 443 62 C442.34080566 61.49146484 441.68161133 60.98292969 441.00244141 60.45898438 C429.1810351 51.36680494 416.96721395 43.35715086 404 36 C403.2972998 35.59442871 402.59459961 35.18885742 401.87060547 34.77099609 C377.39661611 20.7244915 348.97371721 10.30093391 321.01074219 6.30322266 C316.67422376 5.64926978 312.36718051 4.80497143 308.05639648 4.00073242 C296.72018065 1.96182435 285.42561548 1.75828251 273.9375 1.75 C273.09474518 1.74932526 272.25199036 1.74865051 271.38369751 1.74795532 C257.06987801 1.76608717 243.13115081 2.58149448 229 5 C227.97696777 5.17160645 226.95393555 5.34321289 225.89990234 5.52001953 C179.43494804 13.53023119 136.62289168 33.37679881 100 63 C99.38817871 63.49467773 98.77635742 63.98935547 98.14599609 64.49902344 C84.83575268 75.36645425 72.49584682 87.37506767 62 101 C60.99680428 102.26358527 59.99284158 103.52656184 58.98828125 104.7890625 C37.43808337 132.11849948 19.77489281 164.16460825 11 198 C10.77892578 198.81178711 10.55785156 199.62357422 10.33007812 200.45996094 C5.54849321 218.15182513 3.01824739 235.82671495 1 254 C0.67 254 0.34 254 0 254 C0 170.18 0 86.36 0 0 Z " fill="#FEFEFE" transform="translate(0,0)"/>
<path d="M0 0 C2.49671869 0.02613618 4.99350955 0.04605313 7.49032593 0.06002808 C13.37082642 0.1078637 19.24752858 0.21795637 25.12647855 0.35892093 C32.48339893 0.53145198 39.84079005 0.60609437 47.19921875 0.68359375 C60.30916081 0.8334059 73.41606441 1.06938476 86.5234375 1.3671875 C83.40288331 11.83660516 83.40288331 11.83660516 81.76171875 16.87353516 C81.29608521 18.30519516 81.29608521 18.30519516 80.82104492 19.76577759 C80.49595947 20.76088348 80.17087402 21.75598938 79.8359375 22.78125 C79.49216064 23.83573334 79.14838379 24.89021667 78.79418945 25.97665405 C78.07205829 28.19036313 77.34931198 30.40387162 76.62597656 32.6171875 C75.52451852 35.98887837 74.42621911 39.36158728 73.328125 42.734375 C72.62258707 44.89589576 71.91686419 47.05735617 71.2109375 49.21875 C70.88585205 50.21790436 70.5607666 51.21705872 70.22583008 52.24649048 C69.33809218 54.95794455 68.43233624 57.66277019 67.5234375 60.3671875 C67.27475418 61.14976425 67.02607086 61.932341 66.76985168 62.7386322 C65.77092479 65.70664286 64.96596751 67.95768811 62.6394043 70.1105957 C61.92437744 70.45952881 61.20935059 70.80846191 60.47265625 71.16796875 C59.64282227 71.58264404 58.81298828 71.99731934 57.95800781 72.42456055 C57.05147461 72.83875244 56.14494141 73.25294434 55.2109375 73.6796875 C54.26702148 74.13190674 53.32310547 74.58412598 52.35058594 75.05004883 C19.42308701 90.3671875 19.42308701 90.3671875 10.5234375 90.3671875 C11.45944754 85.60913648 12.53465922 81.14525593 14.2734375 76.6171875 C16.64427689 70.33314108 18.41411737 63.90819292 20.22802734 57.44750977 C22.50195019 49.36879532 24.96819937 41.36078644 27.5234375 33.3671875 C14.46793215 32.62329944 14.46793215 32.62329944 2.46582031 36.72607422 C-1.14458163 40.30194188 -3.62969965 44.60550225 -6.11083984 49.00830078 C-8.46952924 53.08224732 -11.22287939 56.88361977 -13.9140625 60.7421875 C-15.00155796 62.34269252 -16.08749063 63.9442605 -17.171875 65.546875 C-21.49605303 71.8929471 -25.9997097 78.10575139 -30.53125 84.3046875 C-32.35217395 86.79782714 -34.1328485 89.30783094 -35.859375 91.8671875 C-36.53742188 92.8571875 -37.21546875 93.8471875 -37.9140625 94.8671875 C-38.46964844 95.7025 -39.02523437 96.5378125 -39.59765625 97.3984375 C-43.6760063 101.67180221 -49.93408583 101.92008408 -55.5390625 102.8046875 C-56.30621582 102.92956543 -57.07336914 103.05444336 -57.86376953 103.18310547 C-65.0848384 104.34200672 -72.32504069 105.37155368 -79.57055664 106.36499023 C-80.41352295 106.48173096 -81.25648926 106.59847168 -82.125 106.71875 C-82.86927246 106.82010254 -83.61354492 106.92145508 -84.38037109 107.02587891 C-86.48752734 107.33685304 -86.48752734 107.33685304 -88.56005859 107.90161133 C-91.29771165 108.56666921 -93.91592734 108.46023788 -96.7265625 108.4296875 C-97.80421875 108.42066406 -98.881875 108.41164063 -99.9921875 108.40234375 C-101.22195312 108.38494141 -101.22195312 108.38494141 -102.4765625 108.3671875 C-95.05099976 97.12376467 -87.16949199 86.1991399 -79.04443359 75.45288086 C-74.77143796 69.79126532 -70.61443463 64.05128382 -66.47509766 58.29150391 C-62.49780786 52.76348477 -58.46651254 47.27777923 -54.4140625 41.8046875 C-49.03684156 34.5340789 -43.77352078 27.1920265 -38.5859375 19.78515625 C-38.11987595 19.16550995 -37.65381439 18.54586365 -37.17362976 17.90744019 C-35.3389199 15.30297515 -35.3389199 15.30297515 -33.881073 11.92131042 C-26.6404491 -2.45072203 -14.41189586 -0.44299237 0 0 Z " fill="#010100" transform="translate(314.4765625,119.6328125)"/>
<path d="M0 0 C6.37482349 2.5499294 10.1896563 9.70474385 12.9375 15.75 C15.92841829 25.09897102 14.57371517 35.0045507 10.72265625 43.84375 C-3.77853001 70.4128169 -36.54904605 83.14110923 -63.8203125 91.52734375 C-67.41735081 92.57684866 -71.03687866 93.51655131 -74.67382812 94.41699219 C-77.18086294 95.04532963 -79.67575616 95.71247346 -82.171875 96.3828125 C-111.73136059 104.20015436 -141.59127454 109.10393091 -172 112 C-173.14452637 112.11182617 -174.28905273 112.22365234 -175.46826172 112.33886719 C-199.45645919 114.648437 -223.41364921 115.15224807 -247.5 115.0625 C-249.89583238 115.05746537 -252.2916658 115.052906 -254.6875 115.04882812 C-260.45835686 115.038 -266.22917322 115.02142345 -272 115 C-272.495 112.525 -272.495 112.525 -273 110 C-269.94752555 107.96501704 -269.3276942 107.75183757 -265.89306641 107.70678711 C-265.0444101 107.6860463 -264.19575378 107.66530548 -263.32138062 107.64393616 C-262.38259064 107.62608566 -261.44380066 107.60823517 -260.4765625 107.58984375 C-250.38360601 107.27077007 -240.37636532 106.4695518 -230.3359375 105.44140625 C-229.60923103 105.36699688 -228.88252457 105.29258751 -228.13379669 105.21592331 C-223.64039879 104.75318775 -219.148222 104.27932659 -214.65625 103.80297852 C-211.59612882 103.48039511 -208.53524727 103.16538931 -205.47432518 102.8505106 C-202.47800079 102.54171125 -199.48204394 102.22946191 -196.48619461 101.91609001 C-195.07914542 101.76906522 -193.67202061 101.62276186 -192.26481247 101.47726631 C-184.3868878 100.6595955 -176.56335105 99.69332355 -168.74443054 98.42610168 C-164.98674993 97.84268228 -161.22187338 97.48098959 -157.4375 97.125 C-150.03192433 96.36588269 -142.82594261 95.06219496 -135.54394531 93.53393555 C-129.77843339 92.33046032 -124.01045365 91.3199622 -118.1875 90.4375 C-83.86853639 85.16601192 -32.81661002 74.89945746 -9 47 C-3.50566016 39.47634368 -0.65245838 33.91836693 -0.75 24.5625 C-0.74226563 23.82451172 -0.73453125 23.08652344 -0.7265625 22.32617188 C-0.73912493 18.79298872 -0.9381002 16.17977283 -2.1015625 12.80078125 C-3.18100417 9.43573916 -2.7818215 7.91749197 -1.625 4.625 C-1.32851563 3.75101563 -1.03203125 2.87703125 -0.7265625 1.9765625 C-0.48679687 1.32429687 -0.24703125 0.67203125 0 0 Z " fill="#040200" transform="translate(407,137)"/>
<path d="M0 0 C0.36344313 5.35867316 -0.91425568 9.41612655 -2.6875 14.375 C-3.24493638 15.98387445 -3.80089887 17.59326024 -4.35546875 19.203125 C-4.63438965 20.00814453 -4.91331055 20.81316406 -5.20068359 21.64257812 C-6.15851686 24.46751338 -7.03986802 27.31077698 -7.90478516 30.1652832 C-8.69866811 32.77910539 -9.52393149 35.38229714 -10.35693359 37.98388672 C-10.80119258 39.37670779 -11.2385913 40.77172904 -11.67041016 42.16845703 C-12.35496202 44.35236563 -13.07876269 46.51968508 -13.8125 48.6875 C-14.01230469 49.3470166 -14.21210938 50.0065332 -14.41796875 50.68603516 C-16.10352304 55.47871049 -18.42863274 57.48807151 -22.61552429 59.9740448 C-26.94131263 61.83527787 -31.20371665 61.61237933 -35.84375 61.48828125 C-37.35829773 61.47766914 -37.35829773 61.47766914 -38.90344238 61.46684265 C-42.10307421 61.43903256 -45.30090429 61.37631815 -48.5 61.3125 C-50.67966208 61.28739988 -52.85935182 61.26458973 -55.0390625 61.24414062 C-60.35998143 61.18925037 -65.67986195 61.10576005 -71 61 C-70.32173723 57.04858124 -69.16882994 53.46298094 -67.78515625 49.703125 C-67.34623047 48.4965625 -66.90730469 47.29 -66.45507812 46.046875 C-65.53340341 43.53020632 -64.60775312 41.01504384 -63.68164062 38.5 C-60.86478478 30.77362505 -60.86478478 30.77362505 -58.93359375 22.796875 C-58 19 -58 19 -56.34057617 17.36791992 C-53.46993935 15.6902128 -50.86307128 15.04031005 -47.6171875 14.31640625 C-46.36679687 14.02830078 -45.11640625 13.74019531 -43.828125 13.44335938 C-42.51063698 13.1487526 -41.19292668 12.85513815 -39.875 12.5625 C-32.0188209 10.80394884 -24.45905292 9.03999455 -17.04248047 5.86791992 C-14.61686995 4.83719492 -12.16417581 4.0751714 -9.625 3.375 C-6.6861008 2.56129827 -2.89780913 0 0 0 Z " fill="#030200" transform="translate(369,232)"/>
<path d="M0 0 C-1.31607691 3.42081809 -2.58914419 5.99332468 -4.9375 8.8125 C-8.96333157 13.82995745 -12.56544621 19.0989113 -16.17944336 24.4152832 C-16.6306958 25.07874756 -17.08194824 25.74221191 -17.546875 26.42578125 C-17.94745117 27.01786377 -18.34802734 27.60994629 -18.76074219 28.2199707 C-19.16969727 28.80738037 -19.57865234 29.39479004 -20 30 C-20.40940323 30.68734726 -20.81880646 31.37469452 -21.24061584 32.08287048 C-23 34 -23 34 -25.44877625 34.48101807 C-26.4191835 34.47213562 -27.38959076 34.46325317 -28.3894043 34.45410156 C-29.49031906 34.45379944 -30.59123383 34.45349731 -31.72550964 34.45318604 C-32.91308365 34.43254089 -34.10065765 34.41189575 -35.32421875 34.390625 C-37.14902519 34.38213531 -37.14902519 34.38213531 -39.01069641 34.37347412 C-42.90336144 34.35105034 -46.7951123 34.30084013 -50.6875 34.25 C-53.32355443 34.22994289 -55.95962327 34.21169075 -58.59570312 34.1953125 C-65.06411498 34.15116572 -71.53199219 34.08419287 -78 34 C-76.65739453 30.53026101 -75.25178237 27.70110873 -73.0625 24.6875 C-70.72101374 21.43406646 -68.42546118 18.1611022 -66.19921875 14.828125 C-65.71251709 14.10407471 -65.22581543 13.38002441 -64.72436523 12.6340332 C-63.75061718 11.18332758 -62.78255473 9.72878751 -61.82055664 8.27026367 C-61.3693042 7.6022876 -60.91805176 6.93431152 -60.453125 6.24609375 C-60.05254883 5.64466553 -59.65197266 5.0432373 -59.23925781 4.42358398 C-58 3 -58 3 -55 2 C-53.07346185 1.95416415 -51.14545515 1.9618238 -49.21875 2 C-41.93833649 2.05649988 -34.75462012 1.5692915 -27.5 1 C-18.30898437 0.27875381 -9.22126261 -0.13889768 0 0 Z " fill="#050300" transform="translate(246,259)"/>
<path d="M0 0 C12.21 0 24.42 0 37 0 C37 3.63 37 7.26 37 11 C28.75 11 20.5 11 12 11 C12 13.64 12 16.28 12 19 C18.93 19 25.86 19 33 19 C33 22.3 33 25.6 33 29 C26.07 29 19.14 29 12 29 C12 30.98 12 32.96 12 35 C20.25 35 28.5 35 37 35 C37 38.3 37 41.6 37 45 C24.79 45 12.58 45 0 45 C0 30.15 0 15.3 0 0 Z " fill="#050300" transform="translate(376,316)"/>
<path d="M0 0 C2.31 0 4.62 0 7 0 C7.31114746 0.59723877 7.62229492 1.19447754 7.94287109 1.80981445 C8.88195966 3.61200295 9.82127123 5.41407526 10.76074219 7.21606445 C11.84256398 9.29119237 12.92393965 11.36655293 14.00488281 13.44213867 C16.65918122 18.53397038 19.32320057 23.61985853 22.0234375 28.6875 C22.48443848 29.55463623 22.94543945 30.42177246 23.42041016 31.31518555 C24.29425968 32.95650152 25.17144246 34.59604798 26.05224609 36.23364258 C29 41.77787943 29 41.77787943 29 44 C24.71 44 20.42 44 16 44 C14.68 41.69 13.36 39.38 12 37 C6.72 37 1.44 37 -4 37 C-5.32 39.31 -6.64 41.62 -8 44 C-12.29 44 -16.58 44 -21 44 C-19.46025845 39.38077534 -17.76475512 35.28976347 -15.5625 31 C-14.85521673 29.60429435 -14.1482018 28.2084527 -13.44140625 26.8125 C-13.0561377 26.05453125 -12.67086914 25.2965625 -12.27392578 24.515625 C-9.82885598 19.68733845 -7.41753372 14.84211451 -5 10 C-4.04179195 8.0832707 -3.08346888 6.16659889 -2.125 4.25 C-1.71507812 3.43015625 -1.30515625 2.6103125 -0.8828125 1.765625 C-0.59148437 1.18296875 -0.30015625 0.6003125 0 0 Z " fill="#030200" transform="translate(151,317)"/>
<path d="M0 0 C0.69711685 5.29808808 -1.07022914 8.49197654 -3.50463867 13.00341797 C-5.11116175 16.22275908 -6.40592961 19.47420334 -7.67578125 22.83984375 C-8.33380737 24.57609009 -8.33380737 24.57609009 -9.00512695 26.34741211 C-9.49758911 27.66044312 -9.49758911 27.66044312 -10 29 C-11.72500732 28.99214478 -11.72500732 28.99214478 -13.48486328 28.98413086 C-17.76757015 28.96597684 -22.05027364 28.95453004 -26.33300781 28.94506836 C-28.18359958 28.94005189 -30.0341874 28.93323718 -31.88476562 28.92456055 C-34.55079117 28.9123771 -37.21676412 28.90674472 -39.8828125 28.90234375 C-40.70492218 28.89718246 -41.52703186 28.89202118 -42.37405396 28.88670349 C-46.69923396 28.88628486 -50.74008134 29.13423594 -55 30 C-52.9632634 25.6131827 -50.92650475 21.74643125 -47.9375 17.9375 C-45.20317106 14.44363524 -43.59954644 11.12514609 -42 7 C-40.26069013 5.26069013 -37.79950908 5.56089235 -35.42578125 5.31640625 C-34.28302734 5.19330078 -33.14027344 5.07019531 -31.96289062 4.94335938 C-29.54902026 4.69151094 -27.13495948 4.44148034 -24.72070312 4.19335938 C-23.57150391 4.06896484 -22.42230469 3.94457031 -21.23828125 3.81640625 C-20.18680908 3.70756104 -19.13533691 3.59871582 -18.05200195 3.48657227 C-14.86782017 2.97892693 -12.03455941 2.07420175 -9 1 C-6.04980941 0.46906587 -2.99994798 0 0 0 Z " fill="#040200" transform="translate(299,253)"/>
<path d="M0 0 C2.10304477 -0.1080023 4.20766909 -0.18558987 6.3125 -0.25 C8.07013672 -0.31960938 8.07013672 -0.31960938 9.86328125 -0.390625 C13 0 13 0 14.54101562 1.671875 C16.16031454 4.2558165 17.32454739 6.81837545 18.48046875 9.640625 C18.92197266 10.71054687 19.36347656 11.78046875 19.81835938 12.8828125 C20.27017578 13.99398438 20.72199219 15.10515625 21.1875 16.25 C21.65091797 17.37664062 22.11433594 18.50328125 22.59179688 19.6640625 C23.73301853 22.44064301 24.86887152 25.21929594 26 28 C26.25168945 27.46632813 26.50337891 26.93265625 26.76269531 26.3828125 C27.92418735 23.92142883 29.08708573 21.46071201 30.25 19 C30.64574219 18.16082031 31.04148437 17.32164062 31.44921875 16.45703125 C33.90173288 11.27056694 36.41532658 6.12192163 39 1 C42.96 1 46.92 1 51 1 C49.19581519 7.09042732 46.47104266 12.74822933 43.8125 18.5 C43.07809692 20.09618164 43.07809692 20.09618164 42.32885742 21.72460938 C38.70540177 29.56361585 34.95913326 37.32495669 31 45 C27.37 45 23.74 45 20 45 C19.46632813 43.71609375 18.93265625 42.4321875 18.3828125 41.109375 C14.00228684 30.67780107 9.38469928 20.45244858 4.18798828 10.39941406 C3.78563965 9.61663086 3.38329102 8.83384766 2.96875 8.02734375 C2.61232422 7.34406006 2.25589844 6.66077637 1.88867188 5.95678711 C0.9939379 3.98665172 0.45518991 2.1111496 0 0 Z " fill="#040200" transform="translate(315,316)"/>
<path d="M0 0 C3.80565937 1.93705324 6.55458111 3.88527482 9.125 7.3125 C9.3125 9.375 9.3125 9.375 8.125 11.3125 C5.0625 13.5625 5.0625 13.5625 2.125 15.3125 C-0.09807242 14.28035923 -1.81766292 13.36574158 -3.625 11.6875 C-6.94157304 9.66070536 -10.15367189 9.50030537 -13.875 10.3125 C-16.56605198 12.48824416 -18.33032928 14.22315856 -19.875 17.3125 C-20.48228845 22.43620398 -20.48228845 22.43620398 -18.828125 27.13671875 C-17.04656722 29.30078747 -15.39890368 31.05054816 -12.875 32.3125 C-7.00046807 32.86167877 -7.00046807 32.86167877 -1.875 30.3125 C-1.215 29.6525 -0.555 28.9925 0.125 28.3125 C3.45833333 29.64583333 6.79166667 30.97916667 10.125 32.3125 C8.76481009 35.43213955 7.29239866 37.32084822 4.6875 39.5 C4.09066406 40.00917969 3.49382812 40.51835937 2.87890625 41.04296875 C-2.53373436 44.96080438 -10.51780456 43.89585057 -16.875 43.3125 C-23.24010548 41.0851931 -27.50032276 36.13698019 -30.98828125 30.51953125 C-33.31297383 24.73340215 -32.6581135 16.76501345 -30.8125 10.875 C-28.41299507 5.51006916 -23.83247271 2.64714048 -19.125 -0.5625 C-12.69951199 -2.78670739 -6.29534953 -2.58540231 0 0 Z " fill="#040200" transform="translate(217.875,317.6875)"/>
<path d="M0 0 C12.54 0 25.08 0 38 0 C38 3.3 38 6.6 38 10 C32.06 10.495 32.06 10.495 26 11 C25.67 21.89 25.34 32.78 25 44 C21.04 44 17.08 44 13 44 C13 32.78 13 21.56 13 10 C8.71 10 4.42 10 0 10 C0 6.7 0 3.4 0 0 Z " fill="#030200" transform="translate(237,317)"/>
<path d="M0 0 C1.5088547 0.00186958 3.01771002 0.00329093 4.52656555 0.00428772 C8.46049737 0.00807039 12.39439112 0.01786336 16.32830811 0.0289917 C20.35753871 0.0392982 24.38677558 0.04380496 28.41601562 0.04882812 C36.29428813 0.05949029 44.17252993 0.07651437 52.05078125 0.09765625 C51.58561096 0.8653685 51.12044067 1.63308075 50.64117432 2.42405701 C49.57780878 4.21167377 48.56511289 6.03037889 47.60449219 7.87524414 C43.3691098 11.56116058 38.60993027 10.74972684 33.19140625 10.65625 C32.01423035 10.65391861 30.83705444 10.65158722 29.62420654 10.64918518 C27.12586248 10.63943425 24.62754099 10.61761671 22.12939453 10.5847168 C18.3567525 10.53588079 14.58542765 10.52326695 10.8125 10.51757812 C-21.41443083 10.36505021 -21.41443083 10.36505021 -27.94921875 7.09765625 C-27.61921875 5.11765625 -27.28921875 3.13765625 -26.94921875 1.09765625 C-17.96398369 0.04935778 -9.03170998 -0.03325342 0 0 Z " fill="#050300" transform="translate(205.94921875,144.90234375)"/>
<path d="M0 0 C0.99 0 1.98 0 3 0 C1.74832004 6.05349843 0.20490951 11.92913625 -1.6875 17.8125 C-1.94225098 18.61276611 -2.19700195 19.41303223 -2.45947266 20.23754883 C-5.45442218 29.55547046 -8.7163983 38.78065676 -12 48 C-17.21085757 48.6492528 -22.30180454 49.12296776 -27.5625 49.0625 C-28.59503906 49.05347656 -29.62757813 49.04445312 -30.69140625 49.03515625 C-31.83416016 49.01775391 -31.83416016 49.01775391 -33 49 C-31.37872498 43.92729902 -28.32632843 40.09291516 -25.1875 35.875 C-19.77551549 28.50063723 -14.53812872 21.02800789 -9.40307617 13.45849609 C-8.40854946 11.99316213 -7.41105985 10.52983328 -6.41015625 9.06884766 C-5.46786369 7.68640528 -4.53815936 6.29530052 -3.62109375 4.89599609 C-2.48870094 3.21135052 -1.25250409 1.59736586 0 0 Z " fill="#040200" transform="translate(324,166)"/>
<path d="M0 0 C1.11474701 0.00444122 2.22949402 0.00888245 3.37802124 0.01345825 C5.26975571 0.01368484 5.26975571 0.01368484 7.19970703 0.01391602 C8.58124956 0.02413006 9.96279048 0.03456206 11.34432983 0.04519653 C12.7539449 0.04892615 14.16356256 0.05177337 15.57318115 0.05377197 C19.28536116 0.06141248 22.99738494 0.08106442 26.70950317 0.10317993 C30.4966114 0.12362945 34.28374483 0.13277177 38.07089233 0.14285278 C45.50325526 0.16431004 52.93548942 0.19845087 60.36776733 0.24050903 C58.82875097 3.70329585 57.02155001 6.52223867 54.36776733 9.24050903 C51.69830322 9.86196899 51.69830322 9.86196899 48.6211853 9.85574341 C47.4667392 9.86504883 46.31229309 9.87435425 45.12286377 9.88394165 C43.26022385 9.85934875 43.26022385 9.85934875 41.35995483 9.83425903 C39.44450363 9.83431946 39.44450363 9.83431946 37.49035645 9.8343811 C34.79125268 9.82901858 32.09431313 9.81406778 29.39559937 9.78250122 C25.93395403 9.74274266 22.47339471 9.73846577 19.01156425 9.74596405 C15.71093565 9.7497669 12.41051458 9.72896714 9.10995483 9.70925903 C7.86414642 9.70905762 6.61833801 9.7088562 5.33477783 9.70864868 C4.18663605 9.69273682 3.03849426 9.67682495 1.8555603 9.66043091 C0.84170258 9.65201172 -0.17215515 9.64359253 -1.21673584 9.63491821 C-2.01384979 9.50476318 -2.81096375 9.37460815 -3.63223267 9.24050903 C-5.63223267 6.24050903 -5.63223267 6.24050903 -5.38223267 4.17800903 C-4.19981792 1.12343761 -3.27463568 0.29920587 0 0 Z " fill="#020100" transform="translate(163.63223266601563,189.75949096679688)"/>
<path d="M0 0 C1.11132797 -0.00630432 2.22265594 -0.01260864 3.36766052 -0.019104 C5.17545738 -0.01303131 5.17545738 -0.01303131 7.01977539 -0.00683594 C8.25280899 -0.00874939 9.48584259 -0.01066284 10.75624084 -0.01263428 C14.03818752 -0.01434715 17.31994602 -0.00627849 20.60186768 0.00488281 C22.61387167 0.00878216 24.62570095 0.00490101 26.63769531 -0.00195312 C30.49430486 -0.01428593 34.35065517 -0.0128161 38.20727539 -0.00683594 C39.41044907 -0.0108844 40.61362274 -0.01493286 41.85325623 -0.019104 C43.52497643 -0.00964752 43.52497643 -0.00964752 45.23046875 0 C46.21260849 0.00159119 47.19474823 0.00318237 48.20664978 0.00482178 C50.67993164 0.25878906 50.67993164 0.25878906 53.67993164 2.25878906 C51.71722272 5.46601021 49.68157883 7.97214098 46.67993164 10.25878906 C42.17488806 11.30585826 37.84030663 11.05809725 33.24243164 10.82128906 C31.97230225 10.78632324 30.70217285 10.75135742 29.39355469 10.71533203 C26.77551194 10.63732764 24.15795594 10.54087173 21.54125977 10.42626953 C17.86335378 10.26674478 14.18831056 10.16181967 10.50805664 10.07519531 C8.33610555 10.0140382 6.16422324 9.95036953 3.99243164 9.88378906 C2.97802002 9.85357666 1.9636084 9.82336426 0.91845703 9.79223633 C-0.00974854 9.75283936 -0.9379541 9.71344238 -1.89428711 9.67285156 C-2.70470459 9.64143066 -3.51512207 9.61000977 -4.35009766 9.57763672 C-6.32006836 9.25878906 -6.32006836 9.25878906 -8.32006836 7.25878906 C-7.71917444 1.24984984 -5.82359777 0.00944259 0 0 Z " fill="#0A0500" transform="translate(154.320068359375,211.7412109375)"/>
<path d="M0 0 C3.63 0 7.26 0 11 0 C11 14.52 11 29.04 11 44 C7.04 44 3.08 44 -1 44 C-1.02467203 38.05517888 -1.04284663 32.1103874 -1.05493164 26.16552734 C-1.05996831 24.14208457 -1.06679789 22.11864544 -1.07543945 20.09521484 C-1.08753412 17.19107157 -1.09323488 14.28697631 -1.09765625 11.3828125 C-1.10281754 10.47443634 -1.10797882 9.56606018 -1.11329651 8.63015747 C-1.11337204 7.78943695 -1.11344757 6.94871643 -1.11352539 6.08251953 C-1.115746 5.34083527 -1.11796661 4.599151 -1.12025452 3.83499146 C-1 2 -1 2 0 0 Z " fill="#070400" transform="translate(292,317)"/>
<path d="M0 0 C2.06277466 -0.36076355 2.06277466 -0.36076355 4.63330078 -0.34057617 C6.07456833 -0.34023628 6.07456833 -0.34023628 7.54495239 -0.33988953 C8.58457123 -0.32440567 9.62419006 -0.30892181 10.6953125 -0.29296875 C11.75789276 -0.28872391 12.82047302 -0.28447906 13.91525269 -0.28010559 C17.31875646 -0.26327389 20.72167433 -0.22561303 24.125 -0.1875 C26.42837688 -0.17245899 28.73176302 -0.15876958 31.03515625 -0.14648438 C36.69030505 -0.11335574 42.34511068 -0.06311197 48 0 C46.16557119 3.78286186 44.39699151 7.40434188 41 10 C37.86041652 10.83188915 34.84435436 10.74851638 31.61328125 10.65625 C30.71506149 10.65250366 29.81684174 10.64875732 28.8914032 10.64489746 C26.99930902 10.63148732 25.10726887 10.60371826 23.21557617 10.5625 C20.31181649 10.49998528 17.41022638 10.4805374 14.50585938 10.46875 C12.66664005 10.45041675 10.82744287 10.42966735 8.98828125 10.40625 C8.11746414 10.39775024 7.24664703 10.38925049 6.34944153 10.38049316 C0.23445074 10.23445074 0.23445074 10.23445074 -2 8 C-2.38286803 4.26703674 -2.14915785 3.22373677 0 0 Z " fill="#070400" transform="translate(228,121)"/>
<path d="M0 0 C1.67542976 0.28604898 3.34385343 0.61781233 5 1 C4.39351323 7.9745979 2.62737441 14.79120245 -1.87109375 20.28515625 C-6.83221132 23.00417075 -11.76105363 22.41871725 -17.3125 22.25 C-18.99569336 22.22292969 -18.99569336 22.22292969 -20.71289062 22.1953125 C-23.47613447 22.14827856 -26.23762698 22.08256317 -29 22 C-28.17919922 18.16455078 -28.17919922 18.16455078 -26.56640625 16.68359375 C-25.90511719 16.27238281 -25.24382812 15.86117187 -24.5625 15.4375 C-23.76972656 14.93734375 -22.97695313 14.4371875 -22.16015625 13.921875 C-21.11730469 13.28765625 -20.07445312 12.6534375 -19 12 C-17.47771755 11.06794844 -15.95559574 10.13563448 -14.43359375 9.203125 C-11.97000571 7.69516102 -9.50474408 6.19037049 -7.03344727 4.69506836 C-6.26959717 4.23237549 -5.50574707 3.76968262 -4.71875 3.29296875 C-4.02716797 2.8755542 -3.33558594 2.45813965 -2.62304688 2.02807617 C-1.02730446 1.10029629 -1.02730446 1.10029629 0 0 Z " fill="#080400" transform="translate(411,207)"/>
<path d="M0 0 C0.97066406 -0.00257813 1.94132813 -0.00515625 2.94140625 -0.0078125 C5.4375 0.125 5.4375 0.125 7.4375 1.125 C8.55380207 4.47390621 8.60515424 7.10039261 8.625 10.625 C8.63917969 11.7696875 8.65335938 12.914375 8.66796875 14.09375 C8.4375 17.125 8.4375 17.125 6.4375 20.125 C3.42259443 21.12996852 1.39568308 21.22835303 -1.75 21.1875 C-2.65105469 21.17847656 -3.55210937 21.16945313 -4.48046875 21.16015625 C-5.16753906 21.14855469 -5.85460937 21.13695312 -6.5625 21.125 C-6.8925 20.135 -7.2225 19.145 -7.5625 18.125 C-8.2225 18.125 -8.8825 18.125 -9.5625 18.125 C-9.58941685 15.66659395 -9.60929802 13.20848118 -9.625 10.75 C-9.63337891 10.05132812 -9.64175781 9.35265625 -9.65039062 8.6328125 C-9.67578125 3.3515625 -9.67578125 3.3515625 -8.5625 1.125 C-5.46186477 0.09145492 -3.24805932 -0.00864996 0 0 Z " fill="#140B01" transform="translate(203.5625,368.875)"/>
<path d="M0 0 C1.51289503 0.00031716 3.0258126 0.01164445 4.53857422 0.03173828 C5.33480194 0.03456818 6.13102966 0.03739807 6.9513855 0.04031372 C9.49882935 0.05152438 12.04592383 0.07663016 14.59326172 0.10205078 C16.31851706 0.11207945 18.04377791 0.1212055 19.76904297 0.12939453 C24.00225086 0.15146656 28.23519702 0.18600212 32.46826172 0.22705078 C31.49007148 1.54027866 30.51068062 2.8526123 29.53076172 4.16455078 C28.71285156 5.26089844 28.71285156 5.26089844 27.87841797 6.37939453 C26.46826172 8.22705078 26.46826172 8.22705078 25.46826172 9.22705078 C21.35248583 9.44494264 17.23361249 9.41284266 13.11254883 9.41235352 C11.04275908 9.41453812 8.97350379 9.43268569 6.90380859 9.45166016 C5.60636719 9.45359375 4.30892578 9.45552734 2.97216797 9.45751953 C1.77406494 9.46162842 0.57596191 9.4657373 -0.65844727 9.4699707 C-3.53173828 9.22705078 -3.53173828 9.22705078 -5.53173828 7.22705078 C-5.78173828 4.72705078 -5.78173828 4.72705078 -5.53173828 2.22705078 C-3.53173828 0.22705078 -3.53173828 0.22705078 0 0 Z " fill="#010000" transform="translate(208.53173828125,167.77294921875)"/>
<path d="M0 0 C3.77068832 -0.086985 7.54111932 -0.14038579 11.3125 -0.1875 C12.38435547 -0.21263672 13.45621094 -0.23777344 14.56054688 -0.26367188 C15.58857422 -0.27333984 16.61660156 -0.28300781 17.67578125 -0.29296875 C19.0975769 -0.31653442 19.0975769 -0.31653442 20.5480957 -0.34057617 C23 0 23 0 24.84057617 1.3269043 C26 3 26 3 25.875 6.0625 C25 9 25 9 22 11 C19.45629883 11.22705078 19.45629883 11.22705078 16.45703125 11.1953125 C14.84731445 11.18564453 14.84731445 11.18564453 13.20507812 11.17578125 C11.52575195 11.15064453 11.52575195 11.15064453 9.8125 11.125 C8.68134766 11.11597656 7.55019531 11.10695312 6.38476562 11.09765625 C3.58963172 11.07406862 0.79492155 11.041153 -2 11 C-1.85892253 9.54119891 -1.71197585 8.08296449 -1.5625 6.625 C-1.48128906 5.81289062 -1.40007812 5.00078125 -1.31640625 4.1640625 C-1 2 -1 2 0 0 Z " fill="#030100" transform="translate(377,244)"/>
<path d="M0 0 C1.32 0 2.64 0 4 0 C5.32 5.28 6.64 10.56 8 16 C8.66 16 9.32 16 10 16 C10.75241109 12.34543185 11.40049704 8.68266103 12 5 C12.66 5 13.32 5 14 5 C13.7215625 4.0409375 13.7215625 4.0409375 13.4375 3.0625 C13.293125 2.381875 13.14875 1.70125 13 1 C14 0 14 0 17.0625 -0.0625 C18.5165625 -0.0315625 18.5165625 -0.0315625 20 0 C19.01 0.33 18.02 0.66 17 1 C17 1.66 17 2.32 17 3 C17.66 3 18.32 3 19 3 C19.12375 3.515625 19.2475 4.03125 19.375 4.5625 C20.18641628 7.72702351 21.0945913 10.86124985 22 14 C22.99 12.68 23.98 11.36 25 10 C24.34 9.67 23.68 9.34 23 9 C23.99 9 24.98 9 26 9 C26.33 6.36 26.66 3.72 27 1 C28.32 0.67 29.64 0.34 31 0 C30.41196203 3.02419525 29.77321882 6.01758453 29 9 C29.66 9 30.32 9 31 9 C30.67 9.99 30.34 10.98 30 12 C29.01 12 28.02 12 27 12 C27 13.65 27 15.3 27 17 C26.34 17 25.68 17 25 17 C24.67 18.32 24.34 19.64 24 21 C22.68 21 21.36 21 20 21 C19.71125 20.030625 19.4225 19.06125 19.125 18.0625 C18.35785318 14.89335797 18.35785318 14.89335797 16 14 C16 13.34 16 12.68 16 12 C16.66 12 17.32 12 18 12 C17.34 11.01 16.68 10.02 16 9 C15.68546875 9.85464844 15.3709375 10.70929688 15.046875 11.58984375 C14.61890625 12.69457031 14.1909375 13.79929687 13.75 14.9375 C13.33234375 16.03964844 12.9146875 17.14179688 12.484375 18.27734375 C11 21 11 21 8.828125 21.87890625 C8.22484375 21.91886719 7.6215625 21.95882813 7 22 C7 21.01 7 20.02 7 19 C6.34 19 5.68 19 5 19 C4.49411853 17.08487728 3.99551609 15.16783078 3.5 13.25 C3.2215625 12.18265625 2.943125 11.1153125 2.65625 10.015625 C2 7 2 7 2 3 C1.34 3 0.68 3 0 3 C0 2.01 0 1.02 0 0 Z " fill="#140C01" transform="translate(300,368)"/>
<path d="M0 0 C0.66209473 -0.00095673 1.32418945 -0.00191345 2.00634766 -0.00289917 C3.40852961 -0.00358076 4.8107147 -0.00172792 6.21289062 0.00244141 C8.36595713 0.00779004 10.51881502 0.0024958 12.671875 -0.00390625 C14.03125046 -0.00324546 15.3906258 -0.00196429 16.75 0 C18.61785156 0.00169189 18.61785156 0.00169189 20.5234375 0.00341797 C23.375 0.1328125 23.375 0.1328125 24.375 1.1328125 C24.5625 3.5703125 24.5625 3.5703125 24.375 6.1328125 C21.57880868 8.92900382 19.81615287 8.39103639 15.90625 8.3984375 C14.61332031 8.40101563 13.32039063 8.40359375 11.98828125 8.40625 C11.31361816 8.40206055 10.63895508 8.39787109 9.94384766 8.39355469 C7.88283843 8.3828532 5.82270081 8.39345193 3.76171875 8.40625 C2.46878906 8.40367187 1.17585937 8.40109375 -0.15625 8.3984375 C-1.34798828 8.39618164 -2.53972656 8.39392578 -3.76757812 8.39160156 C-6.625 8.1328125 -6.625 8.1328125 -8.625 6.1328125 C-7.82769231 -0.40511056 -6.29475595 0.00570177 0 0 Z " fill="#030100" transform="translate(166.625,167.8671875)"/>
<path d="M0 0 C2.60527105 -0.10792837 5.20608311 -0.18724878 7.8125 -0.25 C8.55048828 -0.28351563 9.28847656 -0.31703125 10.04882812 -0.3515625 C15.52054135 -0.45059803 15.52054135 -0.45059803 18.01171875 1.890625 C19 4 19 4 19 6 C17.50682216 8.98635568 15.81603699 10.19952193 13 12 C10.20720418 12.47153882 7.50947671 12.38113743 4.6875 12.25 C3.57665039 12.22292969 3.57665039 12.22292969 2.44335938 12.1953125 C0.6283429 12.14847337 -1.18600166 12.07673789 -3 12 C-2.68950274 10.56206608 -2.3765224 9.1246682 -2.0625 7.6875 C-1.88847656 6.88699219 -1.71445312 6.08648437 -1.53515625 5.26171875 C-1 3 -1 3 0 0 Z " fill="#0E0801" transform="translate(369,269)"/>
<path d="M0 0 C1.95825873 -0.02694851 3.91662226 -0.04637218 5.875 -0.0625 C6.96554687 -0.07410156 8.05609375 -0.08570313 9.1796875 -0.09765625 C12 0 12 0 14 1 C13.67 1.99 13.34 2.98 13 4 C10.69 4.33 8.38 4.66 6 5 C6 5.66 6 6.32 6 7 C6.94875 7.0825 7.8975 7.165 8.875 7.25 C12 8 12 8 13.375 9.75 C14.07302263 12.26288146 14.14423717 14.40373089 14 17 C13.34 17 12.68 17 12 17 C12.33 17.99 12.66 18.98 13 20 C12 21 12 21 9.05859375 21.09765625 C7.86363281 21.08605469 6.66867187 21.07445312 5.4375 21.0625 C3.64119141 21.04896484 3.64119141 21.04896484 1.80859375 21.03515625 C0.88175781 21.02355469 -0.04507812 21.01195312 -1 21 C-1.33 19.68 -1.66 18.36 -2 17 C0.97 17 3.94 17 7 17 C7 15.68 7 14.36 7 13 C5.88625 12.9175 4.7725 12.835 3.625 12.75 C0 12 0 12 -1.4375 10.25 C-2.06272383 7.74910469 -2.14268336 5.56830044 -2 3 C-1.34 3 -0.68 3 0 3 C0 2.01 0 1.02 0 0 Z " fill="#1C1002" transform="translate(266,369)"/>
<path d="M0 0 C2.12493141 -0.02693575 4.24995912 -0.04636628 6.375 -0.0625 C7.55835938 -0.07410156 8.74171875 -0.08570313 9.9609375 -0.09765625 C13 0 13 0 15 1 C16.26229508 5.47540984 16.26229508 5.47540984 15 8 C16.32 8.33 17.64 8.66 19 9 C17.35 9 15.7 9 14 9 C13.65166856 13.87664009 14.58314288 16.77050005 17 21 C15.35 20.67 13.7 20.34 12 20 C11.8453125 19.0409375 11.8453125 19.0409375 11.6875 18.0625 C11.460625 17.381875 11.23375 16.70125 11 16 C10.01 15.67 9.02 15.34 8 15 C8 14.34 8 13.68 8 13 C6.35 13 4.7 13 3 13 C2.67 15.64 2.34 18.28 2 21 C1.01 20.67 0.02 20.34 -1 20 C-1 16.04 -1 12.08 -1 8 C1.97 8 4.94 8 8 8 C8 7.34 8 6.68 8 6 C9.65 6 11.3 6 13 6 C13 5.34 13 4.68 13 4 C8.38 4 3.76 4 -1 4 C-0.67 2.68 -0.34 1.36 0 0 Z " fill="#0F0901" transform="translate(219,369)"/>
<path d="M0 0 C4.95 0 9.9 0 15 0 C15.66 1.98 16.32 3.96 17 6 C16.34 6 15.68 6 15 6 C13.99153563 10.79020574 13.41966792 13.67993022 15.9375 18 C16.618125 18.99 17.29875 19.98 18 21 C16.35 20.67 14.7 20.34 13 20 C12.67 18.68 12.34 17.36 12 16 C11.01 16 10.02 16 9 16 C8.67 15.01 8.34 14.02 8 13 C6.68 13 5.36 13 4 13 C3.67 15.64 3.34 18.28 3 21 C2.01 21 1.02 21 0 21 C0 16.71 0 12.42 0 8 C2.97 8 5.94 8 9 8 C9 7.34 9 6.68 9 6 C10.65 6 12.3 6 14 6 C14 5.34 14 4.68 14 4 C9.38 4 4.76 4 0 4 C0 2.68 0 1.36 0 0 Z " fill="#0E0801" transform="translate(385,369)"/>
<path d="M0 0 C1.95825873 -0.02694851 3.91662226 -0.04637218 5.875 -0.0625 C6.96554688 -0.07410156 8.05609375 -0.08570313 9.1796875 -0.09765625 C12 0 12 0 14 1 C14 1.66 14 2.32 14 3 C9.71 3 5.42 3 1 3 C1 3.66 1 4.32 1 5 C2.65 5 4.3 5 6 5 C6 5.66 6 6.32 6 7 C6.94875 7.0825 7.8975 7.165 8.875 7.25 C12 8 12 8 13.375 9.75 C14.07302263 12.26288146 14.14423717 14.40373089 14 17 C13.34 17 12.68 17 12 17 C12.33 17.99 12.66 18.98 13 20 C12 21 12 21 9.05859375 21.09765625 C7.86363281 21.08605469 6.66867188 21.07445312 5.4375 21.0625 C3.64119141 21.04896484 3.64119141 21.04896484 1.80859375 21.03515625 C0.88175781 21.02355469 -0.04507813 21.01195312 -1 21 C-1.33 19.68 -1.66 18.36 -2 17 C0.97 17 3.94 17 7 17 C7 15.68 7 14.36 7 13 C4.69 12.67 2.38 12.34 0 12 C-2 5.25 -2 5.25 -2 3 C-1.34 3 -0.68 3 0 3 C0 2.01 0 1.02 0 0 Z " fill="#1C1002" transform="translate(151,369)"/>
<path d="M0 0 C3 1 3 1 4 2.6875 C4.33 3.450625 4.66 4.21375 5 5 C5.53625 5.969375 6.0725 6.93875 6.625 7.9375 C7.98795467 10.97317175 8.28832645 12.73230026 8 16 C8.66 16 9.32 16 10 16 C10.33 17.98 10.66 19.96 11 22 C9.09765625 21.73046875 9.09765625 21.73046875 7 21 C6.05859375 19.36328125 6.05859375 19.36328125 5.4375 17.3125 C4.24869875 13.68730937 2.77762574 10.38595379 1 7 C0.34 7 -0.32 7 -1 7 C-1.33 9.31 -1.66 11.62 -2 14 C-1.01 14 -0.02 14 1 14 C1 14.66 1 15.32 1 16 C1.66 16 2.32 16 3 16 C3 16.66 3 17.32 3 18 C1.88625 18.103125 0.7725 18.20625 -0.375 18.3125 C-1.57125 18.539375 -2.7675 18.76625 -4 19 C-4.66 19.99 -5.32 20.98 -6 22 C-6.99 22 -7.98 22 -9 22 C-8.15290541 18.23513517 -6.89755314 14.64027323 -5.625 11 C-4.99464844 9.1746875 -4.99464844 9.1746875 -4.3515625 7.3125 C-3.16787202 4.41143201 -2.01917138 2.36160395 0 0 Z " fill="#190F02" transform="translate(367,368)"/>
<path d="M0 0 C4.95 0 9.9 0 15 0 C15 0.99 15 1.98 15 3 C15.99 3.33 16.98 3.66 18 4 C17.34 4 16.68 4 16 4 C16.185625 4.78375 16.37125 5.5675 16.5625 6.375 C17 9 17 9 16 11 C12.98509443 12.00496852 10.95818308 12.10335303 7.8125 12.0625 C6.91144531 12.05347656 6.01039063 12.04445313 5.08203125 12.03515625 C4.39496094 12.02355469 3.70789063 12.01195312 3 12 C3 14.97 3 17.94 3 21 C2.01 20.67 1.02 20.34 0 20 C0 16.04 0 12.08 0 8 C5.445 7.505 5.445 7.505 11 7 C11 6.01 11 5.02 11 4 C9.95199219 4.01740234 9.95199219 4.01740234 8.8828125 4.03515625 C7.97273437 4.04417969 7.06265625 4.05320312 6.125 4.0625 C4.76761719 4.07990234 4.76761719 4.07990234 3.3828125 4.09765625 C1 4 1 4 -1 3 C-0.67 2.01 -0.34 1.02 0 0 Z " fill="#0B0600" transform="translate(172,369)"/>
<path d="M0 0 C4.62 0 9.24 0 14 0 C14 1.32 14 2.64 14 4 C10.04 4 6.08 4 2 4 C2.33 4.99 2.66 5.98 3 7 C6.63 7.33 10.26 7.66 14 8 C14 9.65 14 11.3 14 13 C12.06318839 13.08107583 10.1254066 13.13922475 8.1875 13.1875 C7.10855469 13.22230469 6.02960938 13.25710938 4.91796875 13.29296875 C2 13 2 13 0.1640625 11.671875 C-1.58185197 9.16431999 -1.81506081 7.0206735 -2 4 C-1.34 2.68 -0.68 1.36 0 0 Z " fill="#140B01" transform="translate(339,377)"/>
<path d="M0 0 C1.26972656 -0.00257812 2.53945312 -0.00515625 3.84765625 -0.0078125 C6.9375 0.125 6.9375 0.125 7.9375 1.125 C8.1875 4.0625 8.1875 4.0625 7.9375 7.125 C4.58552157 9.35965229 3.35958754 9.39608649 -0.5625 9.375 C-2.00109375 9.38273438 -2.00109375 9.38273438 -3.46875 9.390625 C-6.0625 9.125 -6.0625 9.125 -9.0625 7.125 C-9.25 4 -9.25 4 -9.0625 1.125 C-6.07566593 -0.36841703 -3.31850226 -0.00675178 0 0 Z " fill="#0B0600" transform="translate(207.0625,121.875)"/>
<path d="M0 0 C5.94 0 11.88 0 18 0 C18 0.66 18 1.32 18 2 C17.34 2 16.68 2 16 2 C15.67 2.99 15.34 3.98 15 5 C13.35 5 11.7 5 10 5 C10.185625 6.155 10.37125 7.31 10.5625 8.5 C11.1235724 12.86389648 10.69632186 16.66733065 10 21 C9.34 21 8.68 21 8 21 C8 20.34 8 19.68 8 19 C7.01 19 6.02 19 5 19 C5 18.34 5 17.68 5 17 C5.66 17 6.32 17 7 17 C7 15.68 7 14.36 7 13 C6.34 13 5.68 13 5 13 C5 12.01 5 11.02 5 10 C5.66 10 6.32 10 7 10 C7 8.35 7 6.7 7 5 C4.69 4.67 2.38 4.34 0 4 C0 2.68 0 1.36 0 0 Z " fill="#1C1002" transform="translate(242,369)"/>
<path d="M0 0 C4.47566183 1.21215841 4.47566183 1.21215841 6 3.8125 C5.77669287 7.45984979 5.61627165 9.19622835 3 11.8125 C-0.4375 12.1875 -0.4375 12.1875 -4 11.8125 C-6 10.1875 -6 10.1875 -7 7.8125 C-6.875 4.6875 -6.875 4.6875 -6 1.8125 C-3 -0.1875 -3 -0.1875 0 0 Z " fill="#070400" transform="translate(432,332.1875)"/>
<path d="M0 0 C3.3 0 6.6 0 10 0 C10.33 1.65 10.66 3.3 11 5 C9.02 5 7.04 5 5 5 C5 6.32 5 7.64 5 9 C6.98 9 8.96 9 11 9 C10.67 10.32 10.34 11.64 10 13 C6.7 13 3.4 13 0 13 C-0.66 11.68 -1.32 10.36 -2 9 C-1.34 9 -0.68 9 0 9 C0 6.03 0 3.06 0 0 Z " fill="#CE7910" transform="translate(198,373)"/>
<path d="M0 0 C2.12493141 -0.02693575 4.24995912 -0.04636628 6.375 -0.0625 C7.55835938 -0.07410156 8.74171875 -0.08570313 9.9609375 -0.09765625 C13 0 13 0 15 1 C16.26229508 5.47540984 16.26229508 5.47540984 15 8 C16.32 8.33 17.64 8.66 19 9 C12.4 9 5.8 9 -1 9 C-1 8.67 -1 8.34 -1 8 C1.97 8 4.94 8 8 8 C8 7.34 8 6.68 8 6 C9.65 6 11.3 6 13 6 C13 5.34 13 4.68 13 4 C8.38 4 3.76 4 -1 4 C-0.67 2.68 -0.34 1.36 0 0 Z " fill="#231402" transform="translate(219,369)"/>
<path d="M0 0 C4.95 0 9.9 0 15 0 C15.66 1.98 16.32 3.96 17 6 C16.34 6 15.68 6 15 6 C14.67 7.32 14.34 8.64 14 10 C7.07 9.505 7.07 9.505 0 9 C0 8.67 0 8.34 0 8 C2.97 8 5.94 8 9 8 C9 7.34 9 6.68 9 6 C10.65 6 12.3 6 14 6 C14 5.34 14 4.68 14 4 C9.38 4 4.76 4 0 4 C0 2.68 0 1.36 0 0 Z " fill="#1F1202" transform="translate(385,369)"/>
<path d="M0 0 C4.95 0 9.9 0 15 0 C15 0.99 15 1.98 15 3 C15.99 3.33 16.98 3.66 18 4 C17.34 4 16.68 4 16 4 C16.33 5.65 16.66 7.3 17 9 C15.02 8.34 13.04 7.68 11 7 C11 6.01 11 5.02 11 4 C9.95199219 4.01740234 9.95199219 4.01740234 8.8828125 4.03515625 C7.97273437 4.04417969 7.06265625 4.05320312 6.125 4.0625 C4.76761719 4.07990234 4.76761719 4.07990234 3.3828125 4.09765625 C1 4 1 4 -1 3 C-0.67 2.01 -0.34 1.02 0 0 Z " fill="#1B1002" transform="translate(172,369)"/>
<path d="M0 0 C1.65 0 3.3 0 5 0 C5.04254356 1.99954746 5.04080783 4.00041636 5 6 C4 7 4 7 1.05859375 7.09765625 C-0.73384766 7.08025391 -0.73384766 7.08025391 -2.5625 7.0625 C-4.35880859 7.04896484 -4.35880859 7.04896484 -6.19140625 7.03515625 C-7.11824219 7.02355469 -8.04507812 7.01195312 -9 7 C-9.33 5.68 -9.66 4.36 -10 3 C-6.7 2.67 -3.4 2.34 0 2 C0 1.34 0 0.68 0 0 Z " fill="#140B01" transform="translate(274,383)"/>
<path d="M0 0 C1.95825873 -0.02694851 3.91662226 -0.04637218 5.875 -0.0625 C6.96554687 -0.07410156 8.05609375 -0.08570313 9.1796875 -0.09765625 C12 0 12 0 14 1 C13.67 1.99 13.34 2.98 13 4 C10.69 4.33 8.38 4.66 6 5 C6 5.33 6 5.66 6 6 C3.69 6 1.38 6 -1 6 C-1.33 5.01 -1.66 4.02 -2 3 C-1.34 3 -0.68 3 0 3 C0 2.01 0 1.02 0 0 Z " fill="#170E01" transform="translate(266,369)"/>
<path d="M0 0 C0.97066406 -0.00257813 1.94132813 -0.00515625 2.94140625 -0.0078125 C5.4375 0.125 5.4375 0.125 7.4375 1.125 C7.4375 2.115 7.4375 3.105 7.4375 4.125 C3.1475 4.125 -1.1425 4.125 -5.5625 4.125 C-5.5625 7.095 -5.5625 10.065 -5.5625 13.125 C-5.8925 13.125 -6.2225 13.125 -6.5625 13.125 C-6.5625 9.495 -6.5625 5.865 -6.5625 2.125 C-7.2225 1.795 -7.8825 1.465 -8.5625 1.125 C-5.46186477 0.09145492 -3.24805932 -0.00864996 0 0 Z " fill="#251503" transform="translate(203.5625,368.875)"/>
<path d="M0 0 C4.95 0 9.9 0 15 0 C15 1.32 15 2.64 15 4 C10.38 4 5.76 4 1 4 C0.67 2.68 0.34 1.36 0 0 Z " fill="#1E1102" transform="translate(337,369)"/>
<path d="M0 0 C1.95825873 -0.02694851 3.91662226 -0.04637218 5.875 -0.0625 C6.96554688 -0.07410156 8.05609375 -0.08570313 9.1796875 -0.09765625 C12 0 12 0 14 1 C14 1.66 14 2.32 14 3 C9.71 3 5.42 3 1 3 C1 3.66 1 4.32 1 5 C2.65 5 4.3 5 6 5 C6 5.33 6 5.66 6 6 C4.02 6 2.04 6 0 6 C-0.33 6.66 -0.66 7.32 -1 8 C-1.33 6.35 -1.66 4.7 -2 3 C-1.34 3 -0.68 3 0 3 C0 2.01 0 1.02 0 0 Z " fill="#040200" transform="translate(151,369)"/>
<path d="M0 0 C0.99 0.33 1.98 0.66 3 1 C2.67 4.63 2.34 8.26 2 12 C1.34 12 0.68 12 0 12 C0 11.34 0 10.68 0 10 C-0.99 10 -1.98 10 -3 10 C-3 9.34 -3 8.68 -3 8 C-2.34 8 -1.68 8 -1 8 C-1.33 6.02 -1.66 4.04 -2 2 C-1.34 2 -0.68 2 0 2 C0 1.34 0 0.68 0 0 Z " fill="#0F0801" transform="translate(250,378)"/>
<path d="M0 0 C1.32 0 2.64 0 4 0 C4.36279456 1.28926992 4.71496698 2.58153272 5.0625 3.875 C5.25972656 4.59429687 5.45695312 5.31359375 5.66015625 6.0546875 C6 8 6 8 5 10 C4.34 10 3.68 10 3 10 C2.67 7.69 2.34 5.38 2 3 C1.34 3 0.68 3 0 3 C0 2.01 0 1.02 0 0 Z " fill="#251502" transform="translate(300,368)"/>
<path d="M0 0 C2.50037734 2.17424117 3.43628586 3.73045798 4 7 C1.69 7 -0.62 7 -3 7 C-1.125 1.125 -1.125 1.125 0 0 Z " fill="#BD6F0F" transform="translate(154,336)"/>
<path d="M0 0 C0.66 0 1.32 0 2 0 C2 3.63 2 7.26 2 11 C1.34 11 0.68 11 0 11 C-0.33 11.66 -0.66 12.32 -1 13 C-1.02686553 11.02090602 -1.04633375 9.04171029 -1.0625 7.0625 C-1.07410156 5.96035156 -1.08570313 4.85820312 -1.09765625 3.72265625 C-1 1 -1 1 0 0 Z " fill="#030200" transform="translate(195,371)"/>
<path d="M0 0 C2.64 0.33 5.28 0.66 8 1 C8 1.33 8 1.66 8 2 C10.97 2.495 10.97 2.495 14 3 C13.67 3.66 13.34 4.32 13 5 C9.37 4.67 5.74 4.34 2 4 C1.67 4.66 1.34 5.32 1 6 C0.67 4.02 0.34 2.04 0 0 Z " fill="#3A2204" transform="translate(264,374)"/>
<path d="M0 0 C0.99 0 1.98 0 3 0 C2.50168276 3.68754757 1.89932357 5.60490662 -1 8 C-2.2077558 4.37673261 -1.54311128 3.35853631 0 0 Z " fill="#201302" transform="translate(328,368)"/>
<path d="M0 0 C3 2 3 2 3.6875 4.125 C3.790625 4.74375 3.89375 5.3625 4 6 C2.02 6.99 2.02 6.99 0 8 C-1.125 2.25 -1.125 2.25 0 0 Z " fill="#2E1B03" transform="translate(370,372)"/>
<path d="M0 0 C2.0625 0.4375 2.0625 0.4375 4 1 C2.515 4.465 2.515 4.465 1 8 C-1 6 -1 6 -1.1875 3.4375 C-1 1 -1 1 0 0 Z " fill="#BD6F0F" transform="translate(322,376)"/>
<path d="M0 0 C0.99 0.33 1.98 0.66 3 1 C3 2.65 3 4.3 3 6 C2.01 6 1.02 6 0 6 C-0.38218767 4.34385343 -0.71395102 2.67542976 -1 1 C-0.67 0.67 -0.34 0.34 0 0 Z " fill="#0E0801" transform="translate(372,378)"/>
</svg>
