<svg xmlns="http://www.w3.org/2000/svg" xmlns:xlink="http://www.w3.org/1999/xlink" width="500" zoomAndPan="magnify" viewBox="0 0 375 374.999991" height="500" preserveAspectRatio="xMidYMid meet" version="1.0"><defs><g/></defs><path fill="#000000" d="M 295.917969 55.316406 C 295.039062 55.410156 273.621094 55.570312 248.339844 55.664062 C 215.464844 55.78125 202.289062 55.917969 202.058594 56.105469 C 201.734375 56.359375 200.4375 58.234375 198.679688 60.964844 C 198.167969 61.75 197.171875 63.183594 196.480469 64.15625 C 195.785156 65.128906 193.699219 68.089844 191.847656 70.726562 C 189.996094 73.367188 187.820312 76.464844 187.011719 77.621094 C 185.457031 79.820312 185.113281 80.308594 181.871094 84.703125 C 180.804688 86.160156 179.71875 87.664062 179.460938 88.058594 C 179.230469 88.429688 177.195312 91.230469 174.972656 94.238281 C 172.726562 97.246094 170.0625 100.878906 169.042969 102.289062 C 168.023438 103.722656 165.0625 107.75 162.445312 111.265625 C 159.828125 114.808594 156.820312 118.878906 155.753906 120.335938 C 154.6875 121.796875 153.230469 123.785156 152.488281 124.734375 C 151.726562 125.683594 150.359375 127.558594 149.433594 128.851562 C 148.507812 130.171875 146.863281 132.460938 145.777344 133.941406 C 144.6875 135.445312 143.4375 137.230469 142.996094 137.921875 C 141.863281 139.75 140.148438 142.109375 138.136719 144.632812 C 134.664062 148.984375 134.617188 149.144531 136.910156 148.914062 C 137.789062 148.820312 139.269531 148.613281 140.21875 148.429688 C 141.167969 148.242188 142.324219 148.105469 142.765625 148.105469 C 143.714844 148.105469 147.765625 147.527344 149.941406 147.0625 C 153.671875 146.277344 160.917969 145.1875 166.84375 144.496094 C 167.421875 144.425781 168.417969 144.285156 169.042969 144.171875 C 169.691406 144.054688 171.359375 143.800781 172.75 143.59375 C 174.160156 143.382812 176.082031 143.058594 177.03125 142.875 C 177.980469 142.691406 179.300781 142.433594 179.925781 142.320312 C 180.574219 142.203125 182.242188 141.925781 183.628906 141.742188 C 185.042969 141.53125 186.5 141.277344 186.917969 141.1875 C 188.050781 140.863281 189.8125 138.757812 193.816406 132.832031 C 195.042969 130.980469 197.21875 127.902344 198.632812 126.007812 C 200.042969 124.085938 201.574219 122.003906 202.035156 121.378906 C 202.5 120.730469 203.148438 119.828125 203.496094 119.367188 C 203.839844 118.902344 204.121094 118.464844 204.121094 118.394531 C 204.121094 118.347656 205.230469 116.75 206.597656 114.855469 C 207.941406 112.980469 209.628906 110.550781 210.371094 109.460938 C 211.089844 108.375 212.59375 106.222656 213.75 104.671875 C 214.886719 103.121094 216.507812 100.785156 217.386719 99.464844 C 218.820312 97.246094 222.757812 91.714844 225.1875 88.453125 C 225.765625 87.6875 226.648438 86.460938 227.15625 85.722656 C 227.664062 85.003906 228.289062 84.265625 228.566406 84.101562 C 228.9375 83.847656 230.464844 83.753906 234.933594 83.664062 C 238.175781 83.59375 242.621094 83.5 244.820312 83.429688 C 249.382812 83.316406 249.171875 83.199219 248.363281 85.445312 C 248.132812 86.113281 247.597656 87.757812 247.183594 89.101562 C 246.765625 90.441406 246.304688 91.898438 246.140625 92.339844 C 245.980469 92.777344 245.679688 93.773438 245.445312 94.539062 C 245.097656 95.832031 243.339844 101.503906 242.691406 103.5625 C 242.507812 104.070312 242.273438 104.859375 242.136719 105.296875 C 241.71875 106.753906 240.191406 111.636719 239.890625 112.46875 C 239.726562 112.910156 239.402344 113.90625 239.171875 114.667969 C 238.964844 115.433594 238.523438 116.773438 238.222656 117.675781 C 237.898438 118.554688 237.550781 119.597656 237.457031 119.992188 C 235.90625 125.242188 233.960938 131.074219 233.660156 131.375 C 233.59375 131.46875 233.523438 131.722656 233.523438 131.976562 C 233.523438 132.371094 233.636719 132.394531 234.402344 132.277344 C 236.046875 131.976562 243.175781 129.664062 248.339844 127.742188 C 249.429688 127.347656 251.1875 126.722656 252.277344 126.355469 C 256.027344 125.082031 260.726562 123.183594 263.96875 121.609375 C 265.378906 120.9375 266.675781 120.335938 266.863281 120.246094 C 267.046875 120.175781 267.578125 119.875 268.019531 119.621094 C 269.78125 118.53125 277.003906 114.832031 278.089844 114.4375 C 278.738281 114.207031 279.433594 113.859375 279.640625 113.671875 C 280.035156 113.347656 280.871094 111.707031 281.238281 110.617188 C 281.332031 110.296875 281.796875 109 282.257812 107.726562 C 283.207031 105.089844 285.246094 99.003906 286.195312 95.925781 C 286.566406 94.769531 287.097656 93.101562 287.398438 92.222656 C 287.722656 91.320312 288.046875 90.28125 288.164062 89.910156 C 288.277344 89.515625 289.96875 84.472656 291.9375 78.6875 C 296.035156 66.5625 296.359375 65.589844 296.867188 63.878906 C 297.285156 62.46875 298.511719 58.925781 299.253906 56.9375 C 299.53125 56.242188 299.691406 55.523438 299.621094 55.363281 C 299.507812 55.0625 298.535156 55.039062 295.917969 55.316406 Z M 295.917969 55.316406 " fill-opacity="1" fill-rule="nonzero"/><path fill="#000000" d="M 149.734375 56.171875 C 149.0625 56.636719 147.257812 59.042969 147.09375 59.667969 C 146.886719 60.523438 147.351562 61.65625 148.324219 62.789062 C 149.921875 64.597656 148.972656 64.503906 167.492188 64.597656 L 184 64.6875 L 185.273438 63.300781 C 185.96875 62.535156 186.964844 61.378906 187.472656 60.707031 C 187.960938 60.039062 189 58.742188 189.765625 57.839844 C 190.527344 56.9375 191.085938 56.105469 191.015625 55.988281 C 190.945312 55.871094 182.308594 55.78125 170.546875 55.804688 C 153.554688 55.847656 150.105469 55.894531 149.734375 56.171875 Z M 149.734375 56.171875 " fill-opacity="1" fill-rule="nonzero"/><path fill="#000000" d="M 126.882812 56.449219 C 123.550781 57.050781 123.15625 57.539062 123.363281 60.753906 C 123.433594 61.886719 123.574219 62.398438 123.921875 62.746094 C 124.683594 63.484375 126.835938 63.902344 130.910156 64.039062 C 135.21875 64.179688 136.097656 63.992188 137.441406 62.605469 C 138.183594 61.84375 138.226562 61.703125 138.203125 60.222656 C 138.183594 58.511719 137.601562 56.796875 137.023438 56.613281 C 136.144531 56.335938 132.578125 56.011719 130.84375 56.035156 C 129.824219 56.058594 128.042969 56.242188 126.882812 56.449219 Z M 126.882812 56.449219 " fill-opacity="1" fill-rule="nonzero"/><path fill="#000000" d="M 305.132812 69.246094 C 304.992188 69.410156 304.832031 69.964844 304.761719 70.472656 C 304.667969 70.980469 304.390625 72.117188 304.136719 73.019531 C 303.859375 73.898438 303.558594 74.9375 303.441406 75.332031 C 303.117188 76.464844 302.703125 77.601562 302.378906 78.269531 C 302.007812 78.988281 301.960938 79.75 302.285156 79.960938 C 302.65625 80.191406 304 82.644531 304.484375 84.007812 C 304.902344 85.121094 304.949219 85.859375 304.949219 90.027344 C 304.949219 96.25 304.554688 98.007812 301.914062 103.5625 C 301.171875 105.160156 298.835938 108.882812 298.371094 109.230469 C 298.28125 109.300781 297.816406 109.855469 297.308594 110.503906 C 295.617188 112.679688 291.355469 116.496094 288.277344 118.601562 C 286.679688 119.691406 279.921875 123.808594 279.710938 123.808594 C 279.664062 123.808594 278.808594 124.292969 277.8125 124.871094 C 274.78125 126.65625 267.046875 130.265625 262.925781 131.792969 C 262.117188 132.09375 259.707031 133.039062 257.394531 133.988281 C 255.472656 134.777344 246.324219 137.808594 243.015625 138.777344 C 242.320312 138.964844 241.371094 139.265625 240.929688 139.425781 C 240.492188 139.589844 239.496094 139.914062 238.730469 140.121094 C 237.96875 140.351562 236.972656 140.652344 236.53125 140.816406 C 235.605469 141.164062 233.683594 141.648438 231.207031 142.203125 C 229.125 142.644531 227.0625 143.175781 225.652344 143.59375 C 224.445312 143.9375 222.339844 144.449219 219.863281 144.980469 C 218.914062 145.1875 217.5 145.488281 216.738281 145.675781 C 215.371094 145.976562 213.449219 146.390625 210.253906 147.0625 C 209.375 147.25 207.707031 147.550781 206.550781 147.757812 C 205.414062 147.964844 203.75 148.265625 202.847656 148.453125 C 200.691406 148.867188 197.613281 149.398438 194.628906 149.839844 C 193.285156 150.046875 191.476562 150.347656 190.574219 150.535156 C 189.695312 150.695312 187.820312 151.019531 186.40625 151.226562 C 185.019531 151.414062 183.191406 151.738281 182.355469 151.921875 C 181.523438 152.085938 179.925781 152.40625 178.769531 152.617188 C 177.632812 152.824219 175.964844 153.148438 175.0625 153.308594 C 172.425781 153.796875 169.878906 154.167969 167.65625 154.351562 C 163.347656 154.722656 159.945312 155.070312 157.816406 155.394531 C 151.863281 156.25 150.546875 156.433594 147.859375 156.78125 C 142.582031 157.453125 132.183594 158.515625 130.890625 158.515625 C 129.660156 158.515625 127.046875 158.816406 121.699219 159.558594 C 120.355469 159.742188 117.761719 160.019531 115.910156 160.160156 C 107.042969 160.832031 103.359375 161.179688 101.207031 161.546875 C 100.445312 161.664062 98.523438 161.871094 96.925781 161.988281 C 95.328125 162.125 93.867188 162.265625 93.683594 162.335938 C 92.847656 162.589844 82.871094 163.191406 76.898438 163.351562 C 69.558594 163.5625 69.164062 163.652344 68.007812 165.25 C 67.105469 166.476562 67.105469 167.03125 68.03125 167.980469 C 69.605469 169.578125 68.703125 169.507812 86.160156 169.484375 C 94.816406 169.484375 105.074219 169.347656 108.964844 169.207031 C 112.851562 169.046875 118.941406 168.8125 122.507812 168.675781 C 130.566406 168.375 134.988281 168.097656 137.09375 167.796875 C 137.996094 167.65625 139.222656 167.539062 139.847656 167.539062 C 140.472656 167.539062 141.886719 167.378906 142.972656 167.195312 C 144.851562 166.871094 151.078125 166.316406 155.960938 166.035156 C 162.003906 165.691406 171.289062 164.695312 177.609375 163.722656 C 180.875 163.214844 184.300781 162.726562 187.449219 162.335938 C 191.152344 161.847656 194.371094 161.339844 196.132812 160.945312 C 199.582031 160.207031 203.703125 159.371094 206.667969 158.839844 C 207.871094 158.632812 209.398438 158.332031 210.023438 158.167969 C 210.671875 158.007812 212.015625 157.683594 213.03125 157.476562 C 214.050781 157.265625 215.417969 156.941406 216.042969 156.78125 C 216.691406 156.621094 218.035156 156.320312 219.050781 156.085938 C 220.070312 155.878906 221.53125 155.53125 222.292969 155.347656 C 225.558594 154.515625 226.089844 154.375 227.734375 154.003906 C 231.460938 153.195312 232.574219 152.964844 234.796875 152.40625 C 240.375 151.042969 245.398438 149.699219 247.761719 148.9375 C 249.171875 148.472656 250.886719 147.917969 251.582031 147.710938 C 252.277344 147.527344 253.226562 147.226562 253.664062 147.0625 C 254.105469 146.902344 255.308594 146.507812 256.328125 146.183594 C 257.347656 145.859375 259.058594 145.28125 260.148438 144.863281 C 261.234375 144.472656 262.371094 144.054688 262.695312 143.960938 C 263.019531 143.847656 264.0625 143.40625 265.011719 142.945312 C 265.960938 142.503906 267.742188 141.765625 268.945312 141.277344 C 272.742188 139.820312 272.972656 139.726562 274.433594 139.058594 C 275.242188 138.6875 275.9375 138.386719 276.007812 138.386719 C 276.078125 138.386719 276.933594 137.921875 277.929688 137.367188 C 278.902344 136.8125 280.453125 135.980469 281.332031 135.492188 C 282.234375 135.007812 283.324219 134.382812 283.761719 134.105469 C 284.203125 133.828125 284.734375 133.527344 284.921875 133.457031 C 285.105469 133.363281 285.59375 133.109375 285.960938 132.878906 C 286.355469 132.648438 287.398438 132.046875 288.277344 131.582031 C 289.179688 131.097656 290.0625 130.566406 290.246094 130.425781 C 290.429688 130.265625 291.425781 129.640625 292.445312 129.015625 C 298.003906 125.636719 304.160156 120.128906 308.511719 114.691406 C 313.003906 109.09375 314.789062 105.597656 316.316406 99.511719 C 316.664062 98.125 316.753906 96.945312 316.753906 93.496094 C 316.730469 89.261719 316.640625 88.542969 315.691406 84.820312 C 314.695312 81 311.871094 75.980469 308.558594 72.164062 C 306.082031 69.292969 305.503906 68.785156 305.132812 69.246094 Z M 305.132812 69.246094 " fill-opacity="1" fill-rule="nonzero"/><path fill="#000000" d="M 129.222656 76.375 C 121.835938 76.464844 117.183594 76.605469 116.371094 76.765625 C 115.679688 76.929688 113.6875 77.160156 111.972656 77.300781 C 107.226562 77.691406 106.925781 77.738281 107.042969 78.203125 C 107.089844 78.433594 106.878906 78.917969 106.554688 79.3125 C 106.140625 79.820312 105.953125 80.308594 105.953125 80.933594 C 105.953125 82.667969 107.066406 83.152344 112.203125 83.640625 C 114.3125 83.847656 116.695312 84.195312 117.53125 84.378906 C 118.804688 84.703125 122.160156 84.773438 140.335938 84.933594 C 152.050781 85.027344 163.253906 85.050781 165.222656 84.980469 L 168.8125 84.867188 L 169.621094 84.03125 C 170.0625 83.570312 171.105469 82.320312 171.9375 81.234375 C 172.769531 80.167969 173.882812 78.734375 174.4375 78.039062 C 174.992188 77.367188 175.386719 76.675781 175.339844 76.511719 C 175.226562 76.210938 150.242188 76.117188 129.222656 76.375 Z M 129.222656 76.375 " fill-opacity="1" fill-rule="nonzero"/><path fill="#000000" d="M 232.875 95.023438 C 232.597656 95.207031 231.070312 97.335938 229.472656 99.699219 C 226.507812 104.164062 221.902344 110.828125 220.789062 112.238281 C 220.441406 112.679688 219.214844 114.460938 218.058594 116.171875 C 215.71875 119.667969 213.566406 122.652344 210.464844 126.722656 C 206.550781 131.882812 204.121094 135.726562 204.121094 136.789062 C 204.121094 137.207031 204.257812 137.230469 206.734375 137.113281 C 208.148438 137.019531 210.625 136.835938 212.222656 136.652344 C 213.820312 136.488281 216.574219 136.257812 218.359375 136.1875 C 220.140625 136.09375 221.761719 135.933594 221.96875 135.816406 C 222.203125 135.703125 222.527344 135.167969 222.710938 134.636719 C 222.917969 134.082031 223.289062 133.0625 223.566406 132.371094 C 223.84375 131.675781 224.261719 130.425781 224.539062 129.59375 C 224.792969 128.761719 225.140625 127.71875 225.304688 127.277344 C 225.464844 126.839844 225.71875 126.097656 225.859375 125.660156 C 226.023438 125.21875 226.253906 124.527344 226.34375 124.15625 C 226.460938 123.761719 226.785156 122.722656 227.109375 121.839844 C 227.410156 120.9375 227.898438 119.433594 228.199219 118.488281 C 228.824219 116.378906 230.953125 109.554688 231.785156 107.03125 C 232.109375 106.015625 232.480469 104.859375 232.597656 104.488281 C 232.78125 103.839844 232.945312 103.308594 233.636719 101.363281 C 233.800781 100.925781 234.265625 99.511719 234.65625 98.238281 C 235.074219 96.96875 235.492188 95.742188 235.605469 95.53125 C 235.746094 95.300781 235.839844 95.023438 235.839844 94.882812 C 235.839844 94.515625 233.453125 94.605469 232.875 95.023438 Z M 232.875 95.023438 " fill-opacity="1" fill-rule="nonzero"/><path fill="#000000" d="M 104.449219 96.296875 C 102.992188 96.78125 100.929688 96.78125 98.429688 96.296875 C 97.804688 96.179688 95.8125 96.066406 94.054688 96.066406 L 90.835938 96.042969 L 89.910156 97.011719 C 88.636719 98.355469 88.265625 99.328125 88.613281 100.390625 C 88.984375 101.59375 89.886719 102.707031 90.765625 103.074219 C 91.367188 103.332031 94.101562 103.421875 102.992188 103.5625 C 115.65625 103.746094 115.050781 103.816406 116.511719 102.242188 C 118.039062 100.601562 118.039062 98.816406 116.488281 97.035156 L 115.746094 96.179688 L 112.992188 96.019531 C 108.128906 95.71875 105.976562 95.785156 104.449219 96.296875 Z M 104.449219 96.296875 " fill-opacity="1" fill-rule="nonzero"/><path fill="#000000" d="M 129.707031 96.410156 C 128.550781 97.199219 127.023438 99.417969 127.023438 100.300781 C 127.023438 101.433594 128.480469 103.398438 129.707031 103.933594 C 130.679688 104.371094 131.234375 104.394531 142.023438 104.324219 C 150.589844 104.257812 153.484375 104.164062 154.042969 103.933594 C 154.757812 103.652344 155.984375 102.359375 157.144531 100.625 C 157.46875 100.136719 158.441406 99.003906 159.296875 98.125 C 160.339844 97.058594 160.824219 96.386719 160.730469 96.15625 C 160.617188 95.832031 158.832031 95.808594 145.566406 95.832031 L 130.519531 95.878906 Z M 129.707031 96.410156 " fill-opacity="1" fill-rule="nonzero"/><path fill="#000000" d="M 144.617188 115.246094 C 144.039062 115.339844 131.953125 115.433594 117.761719 115.457031 L 91.945312 115.5 L 91.066406 116.058594 C 88.867188 117.539062 88.21875 119.667969 89.492188 121.402344 C 90.859375 123.324219 90.257812 123.230469 101.207031 123.253906 C 106.554688 123.253906 117.183594 123.34375 124.847656 123.460938 C 135.242188 123.601562 138.945312 123.578125 139.546875 123.367188 C 140.101562 123.183594 140.773438 122.605469 141.632812 121.5625 C 142.324219 120.707031 143.691406 119.042969 144.6875 117.863281 C 147.027344 115.039062 147.027344 114.855469 144.617188 115.246094 Z M 144.617188 115.246094 " fill-opacity="1" fill-rule="nonzero"/><path fill="#000000" d="M 308.953125 130.65625 C 308.351562 130.84375 307.195312 131.445312 306.40625 132.023438 C 302.816406 134.566406 301.40625 135.46875 296.84375 138.199219 C 291.980469 141.09375 291.402344 141.417969 287.167969 143.707031 C 285.894531 144.378906 284.433594 145.375 283.878906 145.90625 C 282.652344 147.15625 282.304688 148.542969 283.160156 148.867188 C 283.324219 148.9375 287.097656 149.054688 291.542969 149.144531 C 301.105469 149.332031 303.859375 149.144531 305.296875 148.195312 C 307.980469 146.414062 310.757812 140.652344 312.007812 134.265625 C 312.378906 132.300781 312.308594 131.492188 311.660156 130.867188 C 311.035156 130.21875 310.503906 130.171875 308.953125 130.65625 Z M 308.953125 130.65625 " fill-opacity="1" fill-rule="nonzero"/><path fill="#000000" d="M 81.25 134.914062 C 80.324219 135.125 79.074219 136.050781 78.355469 137.042969 C 77.269531 138.570312 77.941406 140.351562 80.164062 141.902344 L 81.066406 142.550781 L 89.746094 142.667969 C 94.515625 142.710938 100.050781 142.875 102.019531 142.992188 C 105.90625 143.222656 112.460938 143.359375 120.332031 143.359375 L 125.332031 143.359375 L 126.121094 142.667969 C 126.582031 142.273438 127.253906 141.554688 127.671875 141.046875 C 128.0625 140.539062 129.3125 139.078125 130.472656 137.808594 C 131.628906 136.535156 132.578125 135.378906 132.578125 135.238281 C 132.578125 135.03125 125.980469 134.960938 107.414062 134.9375 C 93.589844 134.914062 82.199219 134.867188 82.128906 134.824219 C 82.0625 134.800781 81.644531 134.824219 81.25 134.914062 Z M 81.25 134.914062 " fill-opacity="1" fill-rule="nonzero"/><path fill="#000000" d="M 270.589844 152.246094 C 269.085938 153.265625 264.523438 155.117188 261.191406 156.085938 C 259.359375 156.621094 255.496094 157.914062 253.898438 158.515625 C 253.203125 158.769531 252 159.210938 251.234375 159.464844 C 250.46875 159.71875 249.542969 160.019531 249.152344 160.160156 C 247.578125 160.691406 243.917969 161.710938 242.550781 161.988281 C 241.972656 162.101562 240.515625 162.425781 239.3125 162.703125 C 238.105469 162.960938 236.742188 163.261719 236.300781 163.375 C 235.859375 163.46875 234.65625 163.792969 233.636719 164.070312 C 232.621094 164.347656 231.484375 164.671875 231.09375 164.765625 C 230.722656 164.855469 228.960938 165.320312 227.203125 165.78125 C 222.203125 167.078125 222.085938 167.171875 221.714844 169.300781 C 221.414062 171.035156 220.972656 172.679688 219.699219 176.566406 C 219.167969 178.277344 218.542969 180.265625 218.335938 180.960938 C 218.125 181.65625 217.800781 182.582031 217.640625 182.996094 C 217.457031 183.414062 217.316406 183.878906 217.316406 184.039062 C 217.316406 184.199219 216.785156 185.726562 216.136719 187.441406 C 215.511719 189.152344 214.675781 191.445312 214.304688 192.53125 C 213.9375 193.617188 213.402344 195.078125 213.148438 195.769531 C 212.175781 198.292969 211.96875 198.894531 211.757812 199.472656 C 211.644531 199.796875 211.34375 200.628906 211.066406 201.324219 C 210.164062 203.660156 210.09375 203.867188 210.230469 204.214844 C 210.347656 204.515625 212.824219 204.539062 229.980469 204.492188 L 249.613281 204.425781 L 251.003906 203.890625 C 253.433594 202.988281 255.609375 201.832031 256.234375 201.160156 C 257.371094 199.957031 258.710938 196.835938 259.984375 192.53125 C 260.195312 191.835938 260.820312 189.847656 261.398438 188.132812 C 261.953125 186.421875 262.742188 183.921875 263.15625 182.582031 C 264.015625 179.757812 264.105469 179.433594 265.960938 173.789062 C 267.253906 169.761719 267.648438 168.464844 268.390625 165.921875 C 269.269531 162.773438 269.410156 162.265625 269.410156 162.011719 C 269.410156 161.847656 269.546875 161.386719 269.734375 160.992188 C 270.472656 159.257812 270.636719 158.75 271.398438 155.785156 C 272.558594 151.273438 272.488281 150.996094 270.589844 152.246094 Z M 270.589844 152.246094 " fill-opacity="1" fill-rule="nonzero"/><path fill="#000000" d="M 278.738281 162.148438 C 278.578125 162.195312 278.4375 162.425781 278.4375 162.636719 C 278.4375 163.328125 277.699219 166.453125 277.027344 168.582031 C 276.679688 169.738281 276.332031 171.035156 276.308594 171.472656 L 276.238281 172.285156 L 278.554688 172.214844 C 279.828125 172.167969 284.527344 172.054688 288.972656 171.960938 C 296.613281 171.820312 297.121094 171.773438 298.003906 171.3125 C 299.714844 170.386719 301.359375 168.1875 301.359375 166.800781 C 301.359375 165.734375 300.640625 164.117188 299.808594 163.328125 C 298.417969 162.011719 298.28125 161.988281 288.230469 162.011719 C 283.160156 162.011719 278.878906 162.082031 278.738281 162.148438 Z M 278.738281 162.148438 " fill-opacity="1" fill-rule="nonzero"/><path fill="#000000" d="M 209.214844 170.570312 C 208.519531 170.6875 206.898438 170.917969 205.625 171.082031 C 204.351562 171.265625 202.683594 171.660156 201.921875 171.984375 C 200.507812 172.5625 199.628906 172.769531 195.4375 173.441406 C 191.0625 174.136719 188.953125 174.503906 187.679688 174.761719 C 186.988281 174.898438 184.441406 175.039062 182.007812 175.085938 C 176.960938 175.199219 175.363281 175.453125 174.691406 176.289062 C 174.460938 176.613281 174.253906 177.003906 174.253906 177.167969 C 174.253906 177.558594 173.699219 179.25 172.816406 181.492188 C 172.261719 182.859375 171.777344 183.644531 170.640625 184.871094 C 169.320312 186.308594 164.527344 193.0625 164.527344 193.503906 C 164.527344 193.59375 164.203125 194.195312 163.8125 194.84375 C 162.816406 196.464844 163 196.8125 164.527344 196.070312 C 166.84375 194.960938 168.648438 194.683594 176.335938 194.265625 C 183.816406 193.851562 187.726562 193.875 194.859375 194.382812 C 196.828125 194.519531 198.910156 194.796875 199.488281 194.984375 C 200.066406 195.167969 200.855469 195.308594 201.25 195.308594 C 202.011719 195.308594 202.128906 195.167969 202.960938 192.992188 C 203.238281 192.300781 203.609375 191.375 203.796875 190.957031 C 203.980469 190.542969 204.121094 190.007812 204.121094 189.800781 C 204.121094 189.570312 204.210938 189.292969 204.328125 189.175781 C 204.558594 188.945312 204.835938 188.226562 205.855469 185.242188 C 206.15625 184.339844 206.644531 183.042969 206.898438 182.351562 C 207.175781 181.65625 207.476562 180.800781 207.59375 180.476562 C 207.894531 179.503906 208.542969 178.347656 209.234375 177.535156 C 209.605469 177.121094 210.183594 176.242188 210.507812 175.59375 C 211.042969 174.527344 211.113281 174.203125 210.972656 172.863281 C 210.902344 172.03125 210.949219 171.195312 211.066406 171.011719 C 211.25 170.710938 210.949219 170.269531 210.601562 170.339844 C 210.53125 170.363281 209.90625 170.457031 209.214844 170.570312 Z M 209.214844 170.570312 " fill-opacity="1" fill-rule="nonzero"/><path fill="#000000" d="M 161.171875 175.429688 C 159.066406 175.800781 150.476562 176.402344 142.304688 176.796875 C 139.570312 176.914062 134.523438 177.191406 131.097656 177.375 C 125.171875 177.722656 118.203125 177.722656 116.347656 177.375 C 115.5625 177.214844 115.515625 177.234375 114.589844 178.695312 C 113.570312 180.246094 111.925781 182.511719 110.5625 184.199219 C 109.867188 185.082031 107.457031 188.714844 106.183594 190.773438 C 104.148438 194.128906 101.695312 197.761719 99.65625 200.535156 C 97.292969 203.707031 96.925781 204.332031 97.339844 204.332031 C 97.433594 204.332031 108.105469 204.355469 121.070312 204.378906 L 144.617188 204.402344 L 145.21875 203.847656 C 146.078125 203.058594 148.136719 200.304688 150.453125 196.8125 C 151.5625 195.144531 153.394531 192.4375 154.550781 190.796875 C 155.683594 189.128906 157.328125 186.746094 158.207031 185.472656 C 160.0625 182.71875 161.542969 180.730469 162.675781 179.410156 C 163.71875 178.230469 165.457031 175.710938 165.457031 175.40625 C 165.457031 175.128906 162.792969 175.152344 161.171875 175.429688 Z M 161.171875 175.429688 " fill-opacity="1" fill-rule="nonzero"/><path fill="#000000" d="M 272 184.5 C 271.863281 184.640625 271.699219 185.101562 271.609375 185.472656 C 271.445312 186.144531 270.382812 189.753906 269.734375 191.789062 C 269.546875 192.324219 269.410156 193.085938 269.410156 193.480469 L 269.410156 194.195312 L 276.078125 194.035156 C 283.832031 193.851562 284.386719 193.757812 286.148438 192 C 286.773438 191.398438 287.46875 190.425781 287.722656 189.871094 C 288.164062 188.851562 288.183594 188.78125 287.769531 187.53125 C 287.492188 186.652344 287.050781 185.890625 286.378906 185.21875 L 285.40625 184.199219 L 278.832031 184.199219 C 273.832031 184.199219 272.1875 184.269531 272 184.5 Z M 272 184.5 " fill-opacity="1" fill-rule="nonzero"/><path fill="#000000" d="M 128.527344 225.132812 C 127.761719 225.25 126.882812 225.433594 126.558594 225.574219 C 126.234375 225.6875 125.515625 225.988281 124.9375 226.199219 C 119.429688 228.375 116.070312 231.425781 114.195312 236.03125 C 112.921875 239.179688 112.621094 240.5 112.507812 243.667969 C 112.296875 248.921875 113.894531 253.804688 116.996094 257.4375 C 119.359375 260.234375 122.390625 262.203125 126.328125 263.5 C 128.203125 264.101562 128.503906 264.144531 132.578125 264.144531 C 137.464844 264.144531 138.484375 263.914062 141.933594 262.132812 C 143.484375 261.300781 144.292969 260.652344 146.632812 258.269531 C 149.292969 255.5625 149.457031 255.351562 149.109375 254.960938 C 148.902344 254.75 148.507812 254.496094 148.230469 254.40625 C 147.464844 254.171875 142.234375 251.535156 141.816406 251.164062 C 141.144531 250.539062 140.519531 250.773438 140.011719 251.8125 C 139.476562 252.921875 138.089844 253.941406 136.167969 254.660156 C 134.570312 255.261719 130.933594 255.261719 129.523438 254.683594 C 127.414062 253.78125 126.90625 253.457031 125.632812 252.207031 C 123.941406 250.539062 123.085938 248.757812 122.761719 246.257812 C 121.835938 238.785156 126.90625 233.464844 133.851562 234.644531 C 136.445312 235.082031 138.203125 236.078125 139.664062 237.882812 C 140.335938 238.691406 140.984375 239.410156 141.097656 239.457031 C 141.355469 239.527344 145.21875 237.1875 146.933594 235.917969 C 147.628906 235.382812 148.390625 234.898438 148.625 234.804688 C 149.527344 234.457031 149.085938 233.554688 146.863281 231.335938 C 144.109375 228.558594 141.515625 226.824219 138.367188 225.6875 C 137.09375 225.226562 136.304688 225.132812 133.390625 225.042969 C 131.492188 224.996094 129.292969 225.042969 128.527344 225.132812 Z M 128.527344 225.132812 " fill-opacity="1" fill-rule="nonzero"/><path fill="#000000" d="M 162.5625 225.386719 L 156.542969 225.503906 L 156.542969 234.527344 L 162.445312 234.597656 C 165.6875 234.621094 168.417969 234.738281 168.488281 234.828125 C 168.582031 234.921875 168.695312 241.421875 168.742188 249.269531 C 168.789062 257.898438 168.929688 263.660156 169.042969 263.777344 C 169.183594 263.890625 171.382812 264.03125 173.976562 264.078125 C 177.957031 264.121094 178.699219 264.101562 178.882812 263.800781 C 179.023438 263.589844 179.113281 257.851562 179.113281 249.289062 C 179.113281 235.523438 179.136719 235.105469 179.554688 234.875 C 179.832031 234.738281 182.007812 234.644531 185.019531 234.644531 C 188.792969 234.644531 190.042969 234.574219 190.113281 234.34375 C 190.183594 234.203125 190.25 232.121094 190.296875 229.761719 L 190.367188 225.457031 L 183.628906 225.320312 C 176.777344 225.15625 173.210938 225.15625 162.5625 225.386719 Z M 162.5625 225.386719 " fill-opacity="1" fill-rule="nonzero"/><path fill="#000000" d="M 205.738281 225.363281 L 204.929688 225.503906 L 204.769531 227.125 C 204.535156 229.554688 204.074219 263.613281 204.28125 263.820312 C 204.464844 264.007812 214.003906 264.191406 214.144531 264.007812 C 214.191406 263.960938 214.375 256.046875 214.539062 246.445312 C 214.699219 236.84375 214.886719 228.1875 214.929688 227.214844 C 215.023438 225.527344 215.023438 225.433594 214.492188 225.296875 C 213.820312 225.132812 206.828125 225.179688 205.738281 225.363281 Z M 205.738281 225.363281 " fill-opacity="1" fill-rule="nonzero"/><path fill="#000000" d="M 224.492188 225.433594 C 224.492188 225.574219 224.957031 226.476562 225.511719 227.449219 C 226.066406 228.417969 227.015625 230.132812 227.617188 231.289062 C 228.242188 232.421875 228.9375 233.742188 229.195312 234.179688 C 229.425781 234.621094 229.820312 235.359375 230.074219 235.800781 C 230.605469 236.820312 234.679688 245.289062 234.679688 245.402344 C 234.679688 245.449219 235.074219 246.351562 235.582031 247.417969 C 237.296875 251.050781 237.875 252.34375 238.386719 253.617188 C 238.664062 254.3125 239.03125 255.191406 239.195312 255.585938 C 239.703125 256.71875 240.839844 259.585938 241.671875 261.832031 L 242.460938 263.914062 L 251.859375 263.914062 L 252.277344 263.105469 C 252.507812 262.664062 252.855469 261.925781 253.0625 261.484375 C 253.25 261.046875 254.128906 259.148438 255.03125 257.296875 C 255.910156 255.421875 256.90625 253.269531 257.230469 252.484375 C 257.554688 251.71875 258.042969 250.726562 258.273438 250.308594 C 258.527344 249.871094 259.105469 248.574219 259.570312 247.464844 C 260.585938 244.964844 261.003906 244.085938 261.792969 242.742188 C 262.117188 242.164062 262.625 241.054688 262.902344 240.3125 C 263.203125 239.550781 263.992188 237.769531 264.664062 236.378906 C 265.355469 234.96875 266.285156 232.953125 266.722656 231.867188 C 267.164062 230.78125 267.949219 229.066406 268.460938 228.050781 C 268.992188 227.03125 269.410156 225.96875 269.410156 225.6875 L 269.410156 225.15625 L 264.0625 225.203125 C 259.570312 225.273438 258.667969 225.320312 258.527344 225.621094 C 258.085938 226.546875 256.398438 230.523438 255.933594 231.75 C 255.148438 233.765625 254.035156 236.449219 253.410156 237.835938 C 253.039062 238.625 252.738281 239.339844 252.738281 239.410156 C 252.738281 239.480469 251.8125 241.421875 250.703125 243.738281 C 249.589844 246.050781 248.457031 248.433594 248.203125 249.035156 C 247.96875 249.660156 247.667969 250.125 247.578125 250.078125 C 247.460938 250.054688 247.160156 249.5 246.90625 248.875 C 246.648438 248.226562 246.046875 246.882812 245.5625 245.867188 C 244.660156 243.921875 242.160156 238.070312 240.492188 233.949219 C 239.960938 232.609375 239.425781 231.359375 239.3125 231.148438 C 239.195312 230.941406 238.6875 229.738281 238.152344 228.488281 C 236.578125 224.761719 237.503906 225.15625 230.511719 225.15625 C 226.089844 225.15625 224.492188 225.226562 224.492188 225.433594 Z M 224.492188 225.433594 " fill-opacity="1" fill-rule="nonzero"/><path fill="#000000" d="M 277.976562 225.480469 C 277.859375 229.902344 278.042969 263.730469 278.183594 263.867188 C 278.300781 263.984375 281.03125 264.054688 284.25 264.054688 C 287.492188 264.03125 294.507812 264.121094 299.832031 264.261719 C 307.585938 264.445312 309.578125 264.445312 309.738281 264.214844 C 309.832031 264.054688 309.925781 261.972656 309.925781 259.585938 L 309.925781 255.238281 L 309.324219 255.097656 C 309 255.007812 304.207031 255.03125 298.648438 255.144531 C 291.148438 255.308594 288.53125 255.285156 288.371094 255.097656 C 288.253906 254.9375 288.183594 253.804688 288.207031 252.554688 L 288.277344 250.261719 L 297.609375 250.191406 L 306.914062 250.148438 L 306.914062 245.890625 C 306.914062 242.347656 306.871094 241.609375 306.566406 241.492188 C 306.382812 241.421875 302.214844 241.308594 297.308594 241.214844 C 292.398438 241.121094 288.324219 240.984375 288.277344 240.890625 C 288.046875 240.542969 288.117188 234.828125 288.347656 234.691406 C 288.601562 234.503906 289.667969 234.503906 301.566406 234.621094 C 308.074219 234.667969 309.554688 234.644531 309.671875 234.367188 C 309.761719 234.203125 309.761719 232.144531 309.695312 229.785156 L 309.578125 225.503906 L 303.09375 225.457031 C 299.53125 225.433594 292.421875 225.386719 287.304688 225.320312 C 280.683594 225.25 277.976562 225.296875 277.976562 225.480469 Z M 277.976562 225.480469 " fill-opacity="1" fill-rule="nonzero"/><path fill="#000000" d="M 83.890625 225.550781 L 82.800781 225.644531 L 80.300781 230.664062 C 78.933594 233.417969 77.429688 236.566406 76.96875 237.652344 C 76.503906 238.738281 75.230469 241.421875 74.140625 243.621094 C 73.054688 245.820312 72.152344 247.671875 72.152344 247.71875 C 72.152344 247.878906 66.78125 258.59375 65.761719 260.511719 C 65.296875 261.371094 64.671875 262.386719 64.371094 262.804688 C 63.261719 264.285156 63.167969 264.261719 69.71875 264.261719 L 75.625 264.261719 L 75.949219 263.5 C 76.132812 263.105469 76.78125 261.578125 77.382812 260.121094 C 78.496094 257.503906 79.167969 256.488281 79.652344 256.8125 C 79.792969 256.902344 82.871094 257.019531 86.484375 257.089844 L 93.058594 257.203125 L 93.777344 258.617188 C 94.492188 260.027344 95.210938 261.601562 95.859375 263.152344 L 96.207031 264.03125 L 99.632812 264.03125 C 101.507812 264.03125 104.078125 264.101562 105.304688 264.191406 C 108.386719 264.378906 108.386719 264.402344 106.183594 260.445312 C 104.402344 257.203125 103.082031 254.613281 97.503906 243.550781 C 94.167969 236.933594 91.207031 231.105469 90.882812 230.59375 C 90.558594 230.085938 89.910156 228.882812 89.421875 227.933594 C 88.125 225.433594 88.082031 225.386719 86.414062 225.433594 C 85.625 225.457031 84.515625 225.503906 83.890625 225.550781 Z M 86.066406 242.304688 C 86.25 243.042969 87.5 245.636719 88.21875 246.792969 C 89.097656 248.25 88.867188 248.386719 85.671875 248.480469 C 83.9375 248.550781 82.894531 248.480469 82.730469 248.320312 C 82.546875 248.132812 82.6875 247.601562 83.242188 246.398438 C 83.679688 245.472656 84.097656 244.5 84.214844 244.246094 C 85.300781 241.46875 85.71875 241.03125 86.066406 242.304688 Z M 86.066406 242.304688 " fill-opacity="1" fill-rule="nonzero"/><path fill="#000000" d="M 324.324219 239.015625 C 322.613281 239.339844 320.113281 242.394531 320.113281 244.175781 C 320.113281 245.703125 322.035156 248.410156 323.722656 249.246094 C 324.582031 249.636719 325.042969 249.730469 326.15625 249.613281 C 328.980469 249.359375 331.6875 246.675781 331.6875 244.132812 C 331.6875 242.625 330.089844 240.335938 328.46875 239.527344 C 327.519531 239.039062 325.460938 238.785156 324.324219 239.015625 Z M 324.324219 239.015625 " fill-opacity="1" fill-rule="nonzero"/><g fill="#000000" fill-opacity="1"><g transform="translate(81.726562, 288.758067)"><g><path d="M 12.3125 -0.953125 C 11.75 -0.316406 10.9375 0 9.875 0 L 0.65625 0 C 0.550781 0 0.414062 -0.0351562 0.25 -0.109375 C 0.09375 -0.191406 0.015625 -0.40625 0.015625 -0.75 L 0.015625 -0.953125 L -0.6875 -0.953125 L -0.6875 -2.515625 C -0.6875 -2.742188 -0.632812 -2.925781 -0.53125 -3.0625 L 0.46875 -3.0625 C 0.539062 -3.144531 0.617188 -3.195312 0.703125 -3.21875 C 0.796875 -3.238281 0.867188 -3.25 0.921875 -3.25 L 10.3125 -3.25 C 10.519531 -3.25 10.664062 -3.28125 10.75 -3.34375 C 10.832031 -3.414062 10.882812 -3.484375 10.90625 -3.546875 C 10.90625 -3.554688 10.910156 -3.5625 10.921875 -3.5625 C 10.929688 -3.5625 10.9375 -3.570312 10.9375 -3.59375 L 6.96875 -3.59375 C 7.09375 -3.820312 7.15625 -4.113281 7.15625 -4.46875 L 7.15625 -6.1875 L 11.375 -6.1875 L 11.375 -6.359375 C 11.375 -6.898438 11.285156 -7.234375 11.109375 -7.359375 C 10.929688 -7.492188 10.765625 -7.5625 10.609375 -7.5625 L 4.03125 -7.5625 C 3.789062 -7.5625 3.546875 -7.578125 3.296875 -7.609375 C 3.046875 -7.640625 2.804688 -7.691406 2.578125 -7.765625 L 1.3125 -7.765625 C 1.09375 -7.835938 0.882812 -7.9375 0.6875 -8.0625 C 0.488281 -8.195312 0.3125 -8.378906 0.15625 -8.609375 C -0.125 -8.984375 -0.34375 -9.507812 -0.5 -10.1875 L 0.578125 -10.1875 C 0.554688 -10.269531 0.535156 -10.351562 0.515625 -10.4375 C 0.492188 -10.53125 0.476562 -10.625 0.46875 -10.71875 L -0.59375 -10.71875 C -0.625 -10.9375 -0.648438 -11.160156 -0.671875 -11.390625 C -0.691406 -11.628906 -0.703125 -11.875 -0.703125 -12.125 L -0.703125 -12.296875 L -0.328125 -12.296875 L -0.328125 -13.796875 C -0.328125 -13.828125 -0.328125 -13.84375 -0.328125 -13.84375 C -0.328125 -13.851562 -0.328125 -13.863281 -0.328125 -13.875 L -1.40625 -13.875 C -1.40625 -13.875 -1.40625 -13.882812 -1.40625 -13.90625 C -1.40625 -14.476562 -1.335938 -14.988281 -1.203125 -15.4375 L 0.640625 -15.4375 C 0.710938 -15.71875 0.800781 -15.984375 0.90625 -16.234375 C 1.019531 -16.484375 1.148438 -16.710938 1.296875 -16.921875 C 1.304688 -16.953125 1.316406 -16.972656 1.328125 -16.984375 C 1.347656 -16.992188 1.367188 -17.007812 1.390625 -17.03125 L 0.234375 -17.03125 C 0.804688 -17.757812 1.660156 -18.125 2.796875 -18.125 L 10.78125 -18.125 C 10.863281 -18.125 10.984375 -18.082031 11.140625 -18 C 11.304688 -17.925781 11.390625 -17.71875 11.390625 -17.375 L 11.390625 -17.03125 L 12.890625 -17.03125 L 12.890625 -15.625 C 12.890625 -15.59375 12.890625 -15.5625 12.890625 -15.53125 C 12.890625 -15.5 12.890625 -15.46875 12.890625 -15.4375 L 11.96875 -15.4375 C 11.9375 -15.1875 11.847656 -15.03125 11.703125 -14.96875 C 11.554688 -14.90625 11.445312 -14.875 11.375 -14.875 L 2.421875 -14.875 C 2.234375 -14.875 2.09375 -14.84375 2 -14.78125 C 1.914062 -14.726562 1.859375 -14.664062 1.828125 -14.59375 C 1.722656 -14.394531 1.664062 -14.164062 1.65625 -13.90625 L 5.859375 -13.90625 C 5.859375 -13.90625 5.859375 -13.898438 5.859375 -13.890625 C 5.859375 -13.878906 5.859375 -13.875 5.859375 -13.875 C 5.835938 -13.851562 5.828125 -13.816406 5.828125 -13.765625 C 5.828125 -13.722656 5.828125 -13.6875 5.828125 -13.65625 L 5.828125 -12.296875 L 1.46875 -12.296875 L 1.46875 -12.03125 C 1.46875 -11.488281 1.554688 -11.148438 1.734375 -11.015625 C 1.910156 -10.890625 2.070312 -10.828125 2.21875 -10.828125 L 8.828125 -10.828125 C 8.984375 -10.828125 9.140625 -10.816406 9.296875 -10.796875 C 9.453125 -10.773438 9.601562 -10.75 9.75 -10.71875 L 10.828125 -10.71875 C 11.253906 -10.625 11.632812 -10.445312 11.96875 -10.1875 L 10.5 -10.1875 C 10.71875 -10.007812 10.898438 -9.816406 11.046875 -9.609375 C 11.410156 -9.097656 11.660156 -8.484375 11.796875 -7.765625 L 13.265625 -7.765625 C 13.296875 -7.523438 13.320312 -7.285156 13.34375 -7.046875 C 13.363281 -6.804688 13.375 -6.546875 13.375 -6.265625 L 13.375 -6.1875 L 12.765625 -6.1875 L 12.765625 -4.328125 C 12.765625 -4.203125 12.757812 -4.078125 12.75 -3.953125 C 12.738281 -3.828125 12.726562 -3.707031 12.71875 -3.59375 L 13.359375 -3.59375 C 13.335938 -3.5 13.320312 -3.40625 13.3125 -3.3125 C 13.3125 -3.226562 13.296875 -3.144531 13.265625 -3.0625 L 11.328125 -3.0625 C 11.191406 -2.34375 10.953125 -1.734375 10.609375 -1.234375 C 10.578125 -1.171875 10.535156 -1.117188 10.484375 -1.078125 C 10.441406 -1.035156 10.410156 -0.992188 10.390625 -0.953125 Z M 12.3125 -0.953125 "/></g></g></g><g fill="#000000" fill-opacity="1"><g transform="translate(100.445226, 288.758067)"><g><path d="M 14.234375 -9.328125 C 14.234375 -9.316406 14.226562 -9.304688 14.21875 -9.296875 C 14.21875 -9.285156 14.21875 -9.28125 14.21875 -9.28125 C 14.125 -9.132812 14.039062 -9.003906 13.96875 -8.890625 C 13.90625 -8.828125 13.847656 -8.757812 13.796875 -8.6875 C 13.753906 -8.613281 13.695312 -8.546875 13.625 -8.484375 C 13.601562 -8.472656 13.585938 -8.460938 13.578125 -8.453125 C 13.578125 -8.453125 13.566406 -8.441406 13.546875 -8.421875 C 13.492188 -8.367188 13.429688 -8.316406 13.359375 -8.265625 C 13.285156 -8.210938 13.210938 -8.15625 13.140625 -8.09375 L 12.4375 -8.09375 C 12.039062 -7.863281 11.578125 -7.6875 11.046875 -7.5625 L 11.71875 -7.5625 C 11.414062 -7.519531 11.085938 -7.5 10.734375 -7.5 L 3.21875 -7.484375 L 3.21875 -0.75 C 3.21875 -0.40625 3.132812 -0.191406 2.96875 -0.109375 C 2.8125 -0.0234375 2.6875 0.015625 2.59375 0.015625 L 1.09375 0.015625 C 1.007812 0.015625 0.882812 -0.0234375 0.71875 -0.109375 C 0.550781 -0.191406 0.46875 -0.40625 0.46875 -0.75 L 0.46875 -0.84375 L -0.0625 -0.84375 L -0.0625 -1.9375 L 0.203125 -1.9375 L 0.203125 -3.515625 L 0.8125 -3.515625 L 0.8125 -7.5625 L -0.0625 -7.5625 L -0.0625 -9.984375 C -0.0625 -10.015625 -0.0546875 -10.046875 -0.046875 -10.078125 C -0.046875 -10.117188 -0.046875 -10.15625 -0.046875 -10.1875 C -0.046875 -10.21875 -0.0351562 -10.234375 -0.015625 -10.234375 C -0.015625 -10.273438 -0.00390625 -10.328125 0.015625 -10.390625 C 0.015625 -10.398438 0.015625 -10.40625 0.015625 -10.40625 C 0.0351562 -10.4375 0.046875 -10.457031 0.046875 -10.46875 C 0.0546875 -10.488281 0.0703125 -10.503906 0.09375 -10.515625 C 0.101562 -10.523438 0.109375 -10.53125 0.109375 -10.53125 C 0.117188 -10.550781 0.128906 -10.5625 0.140625 -10.5625 C 0.148438 -10.570312 0.160156 -10.585938 0.171875 -10.609375 C 0.191406 -10.617188 0.203125 -10.625 0.203125 -10.625 C 0.203125 -10.625 0.207031 -10.628906 0.21875 -10.640625 C 0.226562 -10.640625 0.234375 -10.644531 0.234375 -10.65625 C 0.234375 -10.664062 0.242188 -10.671875 0.265625 -10.671875 C 0.273438 -10.671875 0.285156 -10.671875 0.296875 -10.671875 C 0.304688 -10.679688 0.316406 -10.6875 0.328125 -10.6875 L 1.734375 -10.6875 C 1.773438 -10.71875 1.816406 -10.734375 1.859375 -10.734375 C 1.910156 -10.734375 1.953125 -10.734375 1.984375 -10.734375 L 11.546875 -10.734375 C 12.109375 -10.734375 12.503906 -10.894531 12.734375 -11.21875 C 12.910156 -11.46875 13.019531 -11.820312 13.0625 -12.28125 L 9.9375 -12.28125 C 9.957031 -12.363281 9.96875 -12.445312 9.96875 -12.53125 C 9.96875 -12.613281 9.96875 -12.703125 9.96875 -12.796875 C 9.96875 -13.535156 9.847656 -14.066406 9.609375 -14.390625 C 9.554688 -14.460938 9.492188 -14.523438 9.421875 -14.578125 C 9.359375 -14.628906 9.289062 -14.675781 9.21875 -14.71875 L 12.09375 -14.71875 C 12 -14.757812 11.882812 -14.796875 11.75 -14.828125 C 11.613281 -14.859375 11.46875 -14.875 11.3125 -14.875 L 1.734375 -14.875 C 1.679688 -14.875 1.59375 -14.894531 1.46875 -14.9375 C 1.34375 -14.976562 1.242188 -15.082031 1.171875 -15.25 L -0.8125 -15.25 C -0.832031 -15.289062 -0.847656 -15.34375 -0.859375 -15.40625 C -0.867188 -15.476562 -0.875 -15.550781 -0.875 -15.625 L -0.875 -16.828125 L 0.46875 -16.828125 L 0.46875 -17.359375 C 0.46875 -17.710938 0.550781 -17.925781 0.71875 -18 C 0.882812 -18.082031 1.007812 -18.125 1.09375 -18.125 L 10.734375 -18.125 C 12.171875 -18.125 13.21875 -17.691406 13.875 -16.828125 L 12.78125 -16.828125 C 12.789062 -16.816406 12.800781 -16.800781 12.8125 -16.78125 C 12.832031 -16.769531 12.851562 -16.75 12.875 -16.71875 C 13.019531 -16.53125 13.144531 -16.3125 13.25 -16.0625 C 13.363281 -15.8125 13.460938 -15.539062 13.546875 -15.25 L 15.921875 -15.25 C 15.953125 -15.15625 15.972656 -15.0625 15.984375 -14.96875 C 16.003906 -14.882812 16.019531 -14.800781 16.03125 -14.71875 L 14.109375 -14.71875 C 14.160156 -14.4375 14.203125 -14.132812 14.234375 -13.8125 C 14.265625 -13.488281 14.28125 -13.148438 14.28125 -12.796875 C 14.28125 -12.710938 14.28125 -12.625 14.28125 -12.53125 C 14.28125 -12.445312 14.269531 -12.363281 14.25 -12.28125 L 14.9375 -12.28125 C 14.925781 -12 14.898438 -11.722656 14.859375 -11.453125 C 14.828125 -11.191406 14.78125 -10.9375 14.71875 -10.6875 C 14.6875 -10.507812 14.644531 -10.335938 14.59375 -10.171875 C 14.539062 -10.015625 14.488281 -9.863281 14.4375 -9.71875 C 14.414062 -9.71875 14.40625 -9.710938 14.40625 -9.703125 C 14.363281 -9.585938 14.304688 -9.460938 14.234375 -9.328125 Z M 14.234375 -9.328125 "/></g></g></g><g fill="#000000" fill-opacity="1"><g transform="translate(120.043736, 288.758067)"><g><path d="M 13.171875 -0.8125 C 13.046875 -0.726562 12.90625 -0.644531 12.75 -0.5625 C 12.59375 -0.476562 12.4375 -0.410156 12.28125 -0.359375 C 11.570312 -0.109375 10.742188 0.015625 9.796875 0.015625 L 4.90625 0.015625 C 3.945312 0.015625 3.117188 -0.109375 2.421875 -0.359375 C 2.253906 -0.410156 2.097656 -0.476562 1.953125 -0.5625 C 1.804688 -0.644531 1.660156 -0.726562 1.515625 -0.8125 L 2.265625 -0.8125 C 2.117188 -0.925781 1.972656 -1.046875 1.828125 -1.171875 C 1.691406 -1.296875 1.566406 -1.429688 1.453125 -1.578125 C 1.347656 -1.703125 1.253906 -1.832031 1.171875 -1.96875 C 1.097656 -2.101562 1.023438 -2.242188 0.953125 -2.390625 L 0.21875 -2.390625 C 0.175781 -2.484375 0.132812 -2.570312 0.09375 -2.65625 C 0.0625 -2.75 0.03125 -2.835938 0 -2.921875 L 0.15625 -2.921875 C 0.113281 -3.054688 0.0664062 -3.1875 0.015625 -3.3125 C -0.0234375 -3.445312 -0.0625 -3.585938 -0.09375 -3.734375 C -0.144531 -3.972656 -0.1875 -4.226562 -0.21875 -4.5 C -0.257812 -4.769531 -0.296875 -5.0625 -0.328125 -5.375 L -0.46875 -5.375 C -0.507812 -5.84375 -0.53125 -6.347656 -0.53125 -6.890625 L -0.53125 -6.953125 L -0.28125 -6.953125 L -0.28125 -9.546875 L -0.53125 -9.546875 L -0.53125 -10.078125 L 0.28125 -10.078125 L 0.28125 -11.234375 C 0.28125 -11.796875 0.300781 -12.316406 0.34375 -12.796875 C 0.394531 -13.273438 0.457031 -13.71875 0.53125 -14.125 L -0.28125 -14.125 C -0.25 -14.238281 -0.234375 -14.316406 -0.234375 -14.359375 C -0.109375 -14.890625 0.046875 -15.335938 0.234375 -15.703125 L 0.46875 -15.703125 C 0.539062 -15.867188 0.613281 -16.015625 0.6875 -16.140625 C 0.769531 -16.273438 0.859375 -16.398438 0.953125 -16.515625 C 0.992188 -16.578125 1.035156 -16.628906 1.078125 -16.671875 C 1.117188 -16.710938 1.160156 -16.757812 1.203125 -16.8125 L 2.421875 -16.8125 C 2.796875 -17.207031 3.269531 -17.519531 3.84375 -17.75 C 4.550781 -18 5.382812 -18.125 6.34375 -18.125 L 10.25 -18.125 C 11.207031 -18.125 12.035156 -18 12.734375 -17.75 C 13.421875 -17.488281 13.992188 -17.078125 14.453125 -16.515625 C 14.640625 -16.285156 14.800781 -16.015625 14.9375 -15.703125 L 14.140625 -15.703125 C 14.347656 -15.304688 14.503906 -14.859375 14.609375 -14.359375 C 14.617188 -14.335938 14.625 -14.300781 14.625 -14.25 C 14.625 -14.207031 14.632812 -14.164062 14.65625 -14.125 L 15.4375 -14.125 C 15.507812 -13.71875 15.566406 -13.273438 15.609375 -12.796875 C 15.660156 -12.316406 15.6875 -11.796875 15.6875 -11.234375 L 15.6875 -10.078125 L 15.3125 -10.078125 L 15.3125 -9.546875 L 15.6875 -9.546875 L 15.6875 -6.890625 C 15.6875 -6.273438 15.660156 -5.703125 15.609375 -5.171875 C 15.566406 -4.640625 15.5 -4.160156 15.40625 -3.734375 C 15.375 -3.585938 15.335938 -3.445312 15.296875 -3.3125 C 15.265625 -3.1875 15.226562 -3.054688 15.1875 -2.921875 L 14.453125 -2.921875 C 14.421875 -2.835938 14.382812 -2.75 14.34375 -2.65625 C 14.3125 -2.570312 14.28125 -2.484375 14.25 -2.390625 L 14.953125 -2.390625 C 14.796875 -2.066406 14.628906 -1.789062 14.453125 -1.5625 C 14.347656 -1.414062 14.222656 -1.28125 14.078125 -1.15625 C 13.941406 -1.039062 13.796875 -0.925781 13.640625 -0.8125 Z M 11.4375 -3.40625 C 11.707031 -3.5 11.925781 -3.660156 12.09375 -3.890625 C 12.257812 -4.128906 12.378906 -4.453125 12.453125 -4.859375 C 12.460938 -4.929688 12.472656 -5.007812 12.484375 -5.09375 C 12.492188 -5.1875 12.503906 -5.28125 12.515625 -5.375 L 13.171875 -5.375 C 13.222656 -5.707031 13.25 -6.078125 13.25 -6.484375 L 13.25 -6.953125 L 7.671875 -6.953125 L 7.671875 -10.078125 L 13.25 -10.078125 L 13.25 -11.609375 C 13.25 -12.253906 13.203125 -12.800781 13.109375 -13.25 C 13.078125 -13.425781 13.035156 -13.585938 12.984375 -13.734375 C 12.929688 -13.890625 12.867188 -14.019531 12.796875 -14.125 L 11.984375 -14.125 C 11.984375 -14.132812 11.972656 -14.171875 11.953125 -14.234375 C 11.773438 -14.453125 11.550781 -14.613281 11.28125 -14.71875 C 11.132812 -14.757812 10.96875 -14.796875 10.78125 -14.828125 C 10.59375 -14.859375 10.378906 -14.875 10.140625 -14.875 L 4.21875 -14.875 C 3.988281 -14.875 3.78125 -14.859375 3.59375 -14.828125 C 3.414062 -14.796875 3.242188 -14.757812 3.078125 -14.71875 C 2.816406 -14.613281 2.597656 -14.453125 2.421875 -14.234375 C 2.390625 -14.171875 2.375 -14.132812 2.375 -14.125 L 3.171875 -14.125 C 3.035156 -13.9375 2.929688 -13.644531 2.859375 -13.25 C 2.773438 -12.800781 2.734375 -12.253906 2.734375 -11.609375 L 2.734375 -6.953125 L 1.171875 -6.953125 L 1.171875 -6.484375 C 1.171875 -6.285156 1.171875 -6.085938 1.171875 -5.890625 C 1.179688 -5.703125 1.191406 -5.53125 1.203125 -5.375 L 2.796875 -5.375 C 2.796875 -5.195312 2.816406 -5.023438 2.859375 -4.859375 C 2.929688 -4.453125 3.050781 -4.128906 3.21875 -3.890625 C 3.382812 -3.660156 3.601562 -3.5 3.875 -3.40625 C 4.132812 -3.300781 4.515625 -3.25 5.015625 -3.25 L 10.296875 -3.25 C 10.765625 -3.25 11.144531 -3.300781 11.4375 -3.40625 Z M 11.4375 -3.40625 "/></g></g></g><g fill="#000000" fill-opacity="1"><g transform="translate(140.874018, 288.758067)"><g><path d="M 15.375 -0.421875 C 15.332031 -0.128906 15.164062 0.015625 14.875 0.015625 L 12.828125 0.015625 C 12.609375 0.015625 12.453125 -0.0234375 12.359375 -0.109375 C 12.273438 -0.179688 12.195312 -0.285156 12.125 -0.421875 L 12.078125 -0.5 L 11.71875 -0.5 L 10.03125 -3.46875 L 11 -3.46875 L 10.6875 -4.03125 L 8.515625 -4.03125 L 7.0625 -6.59375 L 9.125 -6.59375 L 8.625 -7.484375 L 3.140625 -7.484375 L 3.140625 -6.59375 L 2.484375 -6.59375 L 2.484375 -4.03125 L 3.140625 -4.03125 L 3.140625 -3.46875 L 2.484375 -3.46875 L 2.484375 -0.75 C 2.484375 -0.707031 2.476562 -0.660156 2.46875 -0.609375 C 2.46875 -0.566406 2.46875 -0.53125 2.46875 -0.5 L 3.125 -0.5 C 3.0625 -0.269531 2.960938 -0.125 2.828125 -0.0625 C 2.703125 -0.0078125 2.601562 0.015625 2.53125 0.015625 L 0.859375 0.015625 C 0.785156 0.015625 0.675781 -0.0078125 0.53125 -0.0625 C 0.394531 -0.125 0.304688 -0.269531 0.265625 -0.5 L -0.109375 -0.5 C -0.109375 -0.53125 -0.109375 -0.566406 -0.109375 -0.609375 C -0.117188 -0.660156 -0.125 -0.707031 -0.125 -0.75 L -0.125 -3.46875 L 0.84375 -3.46875 L 0.84375 -4.03125 L -0.125 -4.03125 L -0.125 -6.59375 L 0.71875 -6.59375 L 0.71875 -8.1875 L -0.125 -8.1875 L -0.125 -9.984375 C -0.125 -10.148438 -0.0976562 -10.28125 -0.046875 -10.375 C -0.00390625 -10.476562 0.046875 -10.5625 0.109375 -10.625 L 1.671875 -10.625 C 1.742188 -10.6875 1.8125 -10.71875 1.875 -10.71875 C 1.945312 -10.726562 2.003906 -10.734375 2.046875 -10.734375 L 11.640625 -10.734375 C 12.140625 -10.734375 12.503906 -10.875 12.734375 -11.15625 L 7.375 -11.15625 C 7.382812 -11.164062 7.390625 -11.175781 7.390625 -11.1875 C 7.398438 -11.195312 7.414062 -11.207031 7.4375 -11.21875 C 7.644531 -11.539062 7.757812 -12.046875 7.78125 -12.734375 L 12.46875 -12.734375 C 12.46875 -12.753906 12.46875 -12.765625 12.46875 -12.765625 C 12.46875 -12.773438 12.46875 -12.785156 12.46875 -12.796875 C 12.46875 -13.460938 12.367188 -13.960938 12.171875 -14.296875 L 11.3125 -14.296875 C 11.28125 -14.359375 11.265625 -14.390625 11.265625 -14.390625 C 11.046875 -14.710938 10.648438 -14.875 10.078125 -14.875 L 0.5 -14.875 C 0.40625 -14.875 0.273438 -14.910156 0.109375 -14.984375 C -0.046875 -15.066406 -0.125 -15.28125 -0.125 -15.625 L -0.125 -15.890625 L 0.640625 -15.890625 L 0.640625 -17.359375 C 0.640625 -17.390625 0.640625 -17.410156 0.640625 -17.421875 C 0.640625 -17.441406 0.640625 -17.457031 0.640625 -17.46875 L -0.109375 -17.46875 C -0.078125 -17.757812 0.0078125 -17.941406 0.15625 -18.015625 C 0.300781 -18.085938 0.414062 -18.125 0.5 -18.125 L 9.546875 -18.125 C 10.578125 -18.125 11.398438 -17.90625 12.015625 -17.46875 L 13.140625 -17.46875 C 13.429688 -17.28125 13.6875 -17.03125 13.90625 -16.71875 C 14.0625 -16.488281 14.210938 -16.210938 14.359375 -15.890625 L 13.390625 -15.890625 C 13.484375 -15.648438 13.566406 -15.398438 13.640625 -15.140625 C 13.710938 -14.890625 13.765625 -14.617188 13.796875 -14.328125 L 14.765625 -14.328125 C 14.796875 -14.085938 14.820312 -13.84375 14.84375 -13.59375 C 14.863281 -13.34375 14.875 -13.078125 14.875 -12.796875 C 14.875 -12.785156 14.875 -12.773438 14.875 -12.765625 C 14.875 -12.765625 14.875 -12.753906 14.875 -12.734375 L 13.390625 -12.734375 C 13.390625 -12.453125 13.378906 -12.179688 13.359375 -11.921875 C 13.335938 -11.660156 13.3125 -11.40625 13.28125 -11.15625 L 17.453125 -11.15625 C 17.429688 -10.976562 17.394531 -10.800781 17.34375 -10.625 L 13.390625 -10.625 C 13.242188 -9.945312 13.003906 -9.367188 12.671875 -8.890625 C 12.460938 -8.617188 12.226562 -8.382812 11.96875 -8.1875 L 13.203125 -8.1875 C 12.703125 -7.84375 12.113281 -7.628906 11.4375 -7.546875 L 11.984375 -6.59375 L 11.328125 -6.59375 L 12.828125 -4.03125 L 13.484375 -4.03125 L 13.796875 -3.46875 L 13.140625 -3.46875 L 14.625 -0.953125 C 14.6875 -0.847656 14.71875 -0.695312 14.71875 -0.5 L 15.375 -0.5 C 15.375 -0.488281 15.375 -0.472656 15.375 -0.453125 C 15.375 -0.441406 15.375 -0.429688 15.375 -0.421875 Z M 15.375 -0.421875 "/></g></g></g><g fill="#000000" fill-opacity="1"><g transform="translate(161.022428, 288.758067)"><g><path d="M 14.5625 -15.65625 C 14.5625 -15.289062 14.476562 -15.066406 14.3125 -14.984375 C 14.15625 -14.910156 14.023438 -14.875 13.921875 -14.875 L 8.265625 -14.875 L 8.265625 -14.21875 L 13.65625 -14.21875 L 13.65625 -13.6875 L 8.71875 -13.6875 L 8.71875 -10.578125 L 9.453125 -10.578125 L 9.453125 -8.96875 L 10.140625 -8.96875 L 10.140625 -6.5625 L 9.453125 -6.5625 L 9.453125 -6.03125 L 8.71875 -6.03125 L 8.71875 -4.4375 L 9.453125 -4.4375 L 9.453125 -0.75 C 9.453125 -0.40625 9.375 -0.191406 9.21875 -0.109375 C 9.070312 -0.0351562 8.953125 0 8.859375 0 L 8.046875 0 C 7.941406 0 7.8125 -0.0351562 7.65625 -0.109375 C 7.507812 -0.191406 7.4375 -0.40625 7.4375 -0.75 L 7.4375 -1.296875 L 4.84375 -1.296875 L 4.84375 -2.859375 L 6.703125 -2.859375 L 6.703125 -4.4375 L 6.203125 -4.4375 L 6.203125 -6.03125 L 6.703125 -6.03125 L 6.703125 -6.5625 L 4.96875 -6.5625 L 4.96875 -8.96875 L 6.703125 -8.96875 L 6.703125 -10.578125 L 6.203125 -10.578125 L 6.203125 -13.6875 L 7.4375 -13.6875 L 7.4375 -14.21875 L 6.203125 -14.21875 L 6.203125 -14.875 L 0.546875 -14.875 C 0.460938 -14.875 0.332031 -14.910156 0.15625 -14.984375 C -0.0078125 -15.066406 -0.09375 -15.289062 -0.09375 -15.65625 L -0.09375 -16.671875 L 0.421875 -16.671875 L 0.421875 -17.375 C 0.421875 -17.71875 0.503906 -17.925781 0.671875 -18 C 0.835938 -18.082031 0.96875 -18.125 1.0625 -18.125 L 15.140625 -18.125 C 15.222656 -18.125 15.34375 -18.082031 15.5 -18 C 15.664062 -17.925781 15.75 -17.71875 15.75 -17.375 L 15.75 -16.671875 L 14.5625 -16.671875 Z M 14.5625 -15.65625 "/></g></g></g><g fill="#000000" fill-opacity="1"><g transform="translate(181.478786, 288.758067)"><g><path d="M 12.3125 -0.953125 C 11.75 -0.316406 10.9375 0 9.875 0 L 0.65625 0 C 0.550781 0 0.414062 -0.0351562 0.25 -0.109375 C 0.09375 -0.191406 0.015625 -0.40625 0.015625 -0.75 L 0.015625 -0.953125 L -0.6875 -0.953125 L -0.6875 -2.515625 C -0.6875 -2.742188 -0.632812 -2.925781 -0.53125 -3.0625 L 0.46875 -3.0625 C 0.539062 -3.144531 0.617188 -3.195312 0.703125 -3.21875 C 0.796875 -3.238281 0.867188 -3.25 0.921875 -3.25 L 10.3125 -3.25 C 10.519531 -3.25 10.664062 -3.28125 10.75 -3.34375 C 10.832031 -3.414062 10.882812 -3.484375 10.90625 -3.546875 C 10.90625 -3.554688 10.910156 -3.5625 10.921875 -3.5625 C 10.929688 -3.5625 10.9375 -3.570312 10.9375 -3.59375 L 6.96875 -3.59375 C 7.09375 -3.820312 7.15625 -4.113281 7.15625 -4.46875 L 7.15625 -6.1875 L 11.375 -6.1875 L 11.375 -6.359375 C 11.375 -6.898438 11.285156 -7.234375 11.109375 -7.359375 C 10.929688 -7.492188 10.765625 -7.5625 10.609375 -7.5625 L 4.03125 -7.5625 C 3.789062 -7.5625 3.546875 -7.578125 3.296875 -7.609375 C 3.046875 -7.640625 2.804688 -7.691406 2.578125 -7.765625 L 1.3125 -7.765625 C 1.09375 -7.835938 0.882812 -7.9375 0.6875 -8.0625 C 0.488281 -8.195312 0.3125 -8.378906 0.15625 -8.609375 C -0.125 -8.984375 -0.34375 -9.507812 -0.5 -10.1875 L 0.578125 -10.1875 C 0.554688 -10.269531 0.535156 -10.351562 0.515625 -10.4375 C 0.492188 -10.53125 0.476562 -10.625 0.46875 -10.71875 L -0.59375 -10.71875 C -0.625 -10.9375 -0.648438 -11.160156 -0.671875 -11.390625 C -0.691406 -11.628906 -0.703125 -11.875 -0.703125 -12.125 L -0.703125 -12.296875 L -0.328125 -12.296875 L -0.328125 -13.796875 C -0.328125 -13.828125 -0.328125 -13.84375 -0.328125 -13.84375 C -0.328125 -13.851562 -0.328125 -13.863281 -0.328125 -13.875 L -1.40625 -13.875 C -1.40625 -13.875 -1.40625 -13.882812 -1.40625 -13.90625 C -1.40625 -14.476562 -1.335938 -14.988281 -1.203125 -15.4375 L 0.640625 -15.4375 C 0.710938 -15.71875 0.800781 -15.984375 0.90625 -16.234375 C 1.019531 -16.484375 1.148438 -16.710938 1.296875 -16.921875 C 1.304688 -16.953125 1.316406 -16.972656 1.328125 -16.984375 C 1.347656 -16.992188 1.367188 -17.007812 1.390625 -17.03125 L 0.234375 -17.03125 C 0.804688 -17.757812 1.660156 -18.125 2.796875 -18.125 L 10.78125 -18.125 C 10.863281 -18.125 10.984375 -18.082031 11.140625 -18 C 11.304688 -17.925781 11.390625 -17.71875 11.390625 -17.375 L 11.390625 -17.03125 L 12.890625 -17.03125 L 12.890625 -15.625 C 12.890625 -15.59375 12.890625 -15.5625 12.890625 -15.53125 C 12.890625 -15.5 12.890625 -15.46875 12.890625 -15.4375 L 11.96875 -15.4375 C 11.9375 -15.1875 11.847656 -15.03125 11.703125 -14.96875 C 11.554688 -14.90625 11.445312 -14.875 11.375 -14.875 L 2.421875 -14.875 C 2.234375 -14.875 2.09375 -14.84375 2 -14.78125 C 1.914062 -14.726562 1.859375 -14.664062 1.828125 -14.59375 C 1.722656 -14.394531 1.664062 -14.164062 1.65625 -13.90625 L 5.859375 -13.90625 C 5.859375 -13.90625 5.859375 -13.898438 5.859375 -13.890625 C 5.859375 -13.878906 5.859375 -13.875 5.859375 -13.875 C 5.835938 -13.851562 5.828125 -13.816406 5.828125 -13.765625 C 5.828125 -13.722656 5.828125 -13.6875 5.828125 -13.65625 L 5.828125 -12.296875 L 1.46875 -12.296875 L 1.46875 -12.03125 C 1.46875 -11.488281 1.554688 -11.148438 1.734375 -11.015625 C 1.910156 -10.890625 2.070312 -10.828125 2.21875 -10.828125 L 8.828125 -10.828125 C 8.984375 -10.828125 9.140625 -10.816406 9.296875 -10.796875 C 9.453125 -10.773438 9.601562 -10.75 9.75 -10.71875 L 10.828125 -10.71875 C 11.253906 -10.625 11.632812 -10.445312 11.96875 -10.1875 L 10.5 -10.1875 C 10.71875 -10.007812 10.898438 -9.816406 11.046875 -9.609375 C 11.410156 -9.097656 11.660156 -8.484375 11.796875 -7.765625 L 13.265625 -7.765625 C 13.296875 -7.523438 13.320312 -7.285156 13.34375 -7.046875 C 13.363281 -6.804688 13.375 -6.546875 13.375 -6.265625 L 13.375 -6.1875 L 12.765625 -6.1875 L 12.765625 -4.328125 C 12.765625 -4.203125 12.757812 -4.078125 12.75 -3.953125 C 12.738281 -3.828125 12.726562 -3.707031 12.71875 -3.59375 L 13.359375 -3.59375 C 13.335938 -3.5 13.320312 -3.40625 13.3125 -3.3125 C 13.3125 -3.226562 13.296875 -3.144531 13.265625 -3.0625 L 11.328125 -3.0625 C 11.191406 -2.34375 10.953125 -1.734375 10.609375 -1.234375 C 10.578125 -1.171875 10.535156 -1.117188 10.484375 -1.078125 C 10.441406 -1.035156 10.410156 -0.992188 10.390625 -0.953125 Z M 12.3125 -0.953125 "/></g></g></g><g fill="#000000" fill-opacity="1"><g transform="translate(200.197451, 288.758067)"><g/></g></g><g fill="#000000" fill-opacity="1"><g transform="translate(212.603235, 288.758067)"><g><path d="M -0.484375 -17.53125 C -0.554688 -17.738281 -0.570312 -17.914062 -0.53125 -18.0625 C -0.507812 -18.125 -0.46875 -18.191406 -0.40625 -18.265625 C -0.34375 -18.347656 -0.226562 -18.390625 -0.0625 -18.390625 L 2.3125 -18.390625 C 2.632812 -18.390625 2.835938 -18.226562 2.921875 -17.90625 L 2.953125 -17.859375 L 2.140625 -17.859375 L 2.625 -16.1875 L 3.4375 -16.1875 L 3.921875 -14.546875 L 3.921875 -14.515625 L 3.109375 -14.515625 L 3.59375 -12.875 L 4.40625 -12.875 L 4.890625 -11.171875 L 4.0625 -11.171875 L 4.25 -10.625 L 5.03125 -10.625 L 5.78125 -8.078125 L 5.390625 -8.078125 L 5.875 -6.375 L 6.296875 -6.375 L 6.78125 -4.6875 C 6.789062 -4.664062 6.796875 -4.648438 6.796875 -4.640625 L 6.890625 -4.65625 C 6.890625 -4.65625 6.890625 -4.660156 6.890625 -4.671875 C 6.898438 -4.679688 6.90625 -4.691406 6.90625 -4.703125 L 7.0625 -5.125 L 7.171875 -4.6875 C 7.179688 -4.664062 7.191406 -4.648438 7.203125 -4.640625 C 7.210938 -4.640625 7.21875 -4.640625 7.21875 -4.640625 L 7.296875 -4.65625 C 7.296875 -4.65625 7.296875 -4.660156 7.296875 -4.671875 C 7.296875 -4.679688 7.304688 -4.691406 7.328125 -4.703125 L 7.859375 -6.375 L 7.4375 -6.375 L 7.984375 -8.078125 L 8.78125 -8.078125 L 9.59375 -10.625 L 8.78125 -10.625 L 8.953125 -11.171875 L 9.765625 -11.171875 L 10.296875 -12.875 L 9.484375 -12.875 L 10.015625 -14.515625 L 10.015625 -14.546875 L 10.828125 -14.546875 L 11.359375 -16.1875 L 10.53125 -16.1875 L 11.09375 -17.90625 C 11.207031 -18.226562 11.410156 -18.390625 11.703125 -18.390625 L 16.109375 -18.390625 C 16.429688 -18.390625 16.632812 -18.226562 16.71875 -17.90625 L 16.734375 -17.859375 L 14.015625 -17.859375 L 14.5 -16.1875 L 15.3125 -16.1875 L 15.796875 -14.546875 L 15.796875 -14.515625 L 14.984375 -14.515625 L 15.46875 -12.875 L 16.28125 -12.875 L 16.765625 -11.171875 L 15.953125 -11.171875 L 16.125 -10.625 L 16.9375 -10.625 L 17.671875 -8.078125 L 17.265625 -8.078125 L 17.75 -6.375 L 18.171875 -6.375 L 18.65625 -4.6875 C 18.664062 -4.664062 18.671875 -4.648438 18.671875 -4.640625 L 18.765625 -4.65625 C 18.765625 -4.65625 18.765625 -4.660156 18.765625 -4.671875 C 18.773438 -4.679688 18.78125 -4.691406 18.78125 -4.703125 L 18.9375 -5.125 L 19.078125 -4.6875 C 19.078125 -4.664062 19.078125 -4.648438 19.078125 -4.640625 C 19.085938 -4.640625 19.09375 -4.640625 19.09375 -4.640625 L 19.1875 -4.65625 C 19.1875 -4.65625 19.1875 -4.660156 19.1875 -4.671875 C 19.1875 -4.679688 19.191406 -4.691406 19.203125 -4.703125 L 19.734375 -6.375 L 19.34375 -6.375 L 19.859375 -8.078125 L 20.6875 -8.078125 L 21.46875 -10.625 L 18.546875 -10.625 L 18.71875 -11.171875 L 21.640625 -11.171875 L 22.171875 -12.875 L 21.390625 -12.875 L 21.890625 -14.515625 L 21.890625 -14.546875 L 22.703125 -14.546875 L 23.234375 -16.1875 L 22.421875 -16.1875 L 22.96875 -17.90625 C 23.082031 -18.226562 23.285156 -18.390625 23.578125 -18.390625 L 26.03125 -18.390625 C 26.1875 -18.390625 26.300781 -18.351562 26.375 -18.28125 C 26.445312 -18.207031 26.492188 -18.132812 26.515625 -18.0625 C 26.515625 -18.03125 26.515625 -17.992188 26.515625 -17.953125 C 26.515625 -17.921875 26.515625 -17.890625 26.515625 -17.859375 L 25.703125 -17.859375 C 25.703125 -17.753906 25.675781 -17.644531 25.625 -17.53125 L 25.21875 -16.1875 L 26 -16.1875 L 25.46875 -14.546875 L 25.46875 -14.515625 L 24.65625 -14.515625 L 24.140625 -12.875 L 24.953125 -12.875 L 24.390625 -11.171875 L 23.578125 -11.171875 L 23.40625 -10.625 L 26.0625 -10.625 L 25.25 -8.078125 L 22.984375 -8.078125 L 22.46875 -6.375 L 22.859375 -6.375 L 22.125 -4.09375 L 21.3125 -4.09375 L 20.8125 -2.53125 L 21.625 -2.53125 L 21.53125 -2.3125 C 21.375 -1.882812 21.203125 -1.523438 21.015625 -1.234375 L 20.609375 -1.234375 C 20.535156 -1.128906 20.460938 -1.03125 20.390625 -0.9375 C 20.316406 -0.84375 20.242188 -0.757812 20.171875 -0.6875 C 20.128906 -0.65625 20.082031 -0.613281 20.03125 -0.5625 C 19.976562 -0.519531 19.914062 -0.488281 19.84375 -0.46875 C 19.457031 -0.195312 19.019531 -0.046875 18.53125 -0.015625 C 18.113281 -0.046875 17.722656 -0.164062 17.359375 -0.375 C 16.992188 -0.59375 16.691406 -0.878906 16.453125 -1.234375 L 17.265625 -1.234375 C 17.117188 -1.441406 17.003906 -1.679688 16.921875 -1.953125 C 16.898438 -2.003906 16.875 -2.054688 16.84375 -2.109375 C 16.820312 -2.171875 16.796875 -2.226562 16.765625 -2.28125 L 16.703125 -2.53125 L 15.890625 -2.53125 L 15.421875 -4.09375 L 15.84375 -4.09375 L 15.140625 -6.375 L 12.984375 -6.375 L 12.46875 -8.078125 L 15.046875 -8.078125 L 14.28125 -10.625 L 13.46875 -10.625 L 12.9375 -12.4375 L 11.53125 -8.078125 L 11.109375 -8.078125 L 10.578125 -6.375 L 10.984375 -6.375 L 10.234375 -4.09375 L 9.4375 -4.09375 L 8.9375 -2.53125 L 9.75 -2.53125 L 9.65625 -2.3125 C 9.5 -1.882812 9.320312 -1.523438 9.125 -1.234375 L 8.734375 -1.234375 C 8.554688 -0.984375 8.410156 -0.800781 8.296875 -0.6875 C 8.234375 -0.65625 8.179688 -0.613281 8.140625 -0.5625 C 8.097656 -0.519531 8.039062 -0.488281 7.96875 -0.46875 C 7.550781 -0.1875 7.109375 -0.0351562 6.640625 -0.015625 C 6.210938 -0.046875 5.816406 -0.164062 5.453125 -0.375 C 5.085938 -0.59375 4.796875 -0.878906 4.578125 -1.234375 L 5.375 -1.234375 C 5.3125 -1.347656 5.242188 -1.460938 5.171875 -1.578125 C 5.109375 -1.703125 5.0625 -1.828125 5.03125 -1.953125 C 5.019531 -2.003906 5 -2.054688 4.96875 -2.109375 C 4.9375 -2.171875 4.910156 -2.226562 4.890625 -2.28125 L 4.8125 -2.53125 L 4 -2.53125 L 3.546875 -4.09375 L 3.9375 -4.09375 L 3.25 -6.375 L 2.859375 -6.375 L 2.359375 -8.078125 L 3.171875 -8.078125 L 2.390625 -10.625 L 1.578125 -10.625 L 1.4375 -11.171875 L 2.21875 -11.171875 L 1.734375 -12.875 L 0.921875 -12.875 L 0.421875 -14.515625 L 0.421875 -14.546875 L 1.234375 -14.546875 L 0.75 -16.1875 L -0.0625 -16.1875 Z M -0.484375 -17.53125 "/></g></g></g><g fill="#000000" fill-opacity="1"><g transform="translate(244.321586, 288.758067)"><g><path d="M 14.21875 -1.6875 L 14.21875 -1.25 L 13.46875 -1.25 L 13.46875 -0.75 C 13.46875 -0.507812 13.421875 -0.332031 13.328125 -0.21875 C 13.242188 -0.113281 13.148438 -0.046875 13.046875 -0.015625 L 5.78125 -0.015625 C 5.300781 -0.015625 4.851562 -0.046875 4.4375 -0.109375 C 4.019531 -0.171875 3.640625 -0.265625 3.296875 -0.390625 C 3.035156 -0.484375 2.789062 -0.601562 2.5625 -0.75 C 2.332031 -0.894531 2.113281 -1.0625 1.90625 -1.25 L 2.921875 -1.25 L 2.640625 -1.5625 C 2.628906 -1.59375 2.613281 -1.617188 2.59375 -1.640625 C 2.582031 -1.660156 2.566406 -1.675781 2.546875 -1.6875 L 1.546875 -1.6875 C 1.347656 -1.96875 1.171875 -2.28125 1.015625 -2.625 C 0.867188 -2.96875 0.75 -3.347656 0.65625 -3.765625 L 1.78125 -3.765625 C 1.695312 -4.191406 1.628906 -4.644531 1.578125 -5.125 L -0.59375 -5.125 C -0.601562 -5.332031 -0.613281 -5.535156 -0.625 -5.734375 C -0.644531 -5.941406 -0.65625 -6.164062 -0.65625 -6.40625 L -0.6875 -6.515625 L -0.65625 -7.328125 L 1.0625 -7.328125 L 1.0625 -7.765625 L 0.390625 -7.765625 L 0.421875 -9.28125 C 0.460938 -9.488281 0.535156 -9.671875 0.640625 -9.828125 C 0.921875 -10.316406 1.34375 -10.617188 1.90625 -10.734375 L 12.828125 -10.765625 C 12.910156 -10.765625 13.03125 -10.71875 13.1875 -10.625 C 13.351562 -10.539062 13.4375 -10.328125 13.4375 -9.984375 L 13.4375 -8.25 C 13.4375 -8.039062 13.398438 -7.878906 13.328125 -7.765625 L 13.96875 -7.765625 C 13.90625 -7.660156 13.828125 -7.59375 13.734375 -7.5625 C 13.640625 -7.539062 13.554688 -7.53125 13.484375 -7.53125 L 3.65625 -7.53125 L 3.65625 -7.328125 L 2.984375 -7.328125 C 2.984375 -7.191406 2.984375 -7.007812 2.984375 -6.78125 C 2.984375 -6.5625 2.976562 -6.363281 2.96875 -6.1875 C 2.96875 -6.007812 2.96875 -5.921875 2.96875 -5.921875 L 3.015625 -5.515625 C 3.046875 -5.390625 3.082031 -5.257812 3.125 -5.125 L 3.78125 -5.125 C 3.8125 -5.019531 3.847656 -4.921875 3.890625 -4.828125 C 3.929688 -4.734375 3.976562 -4.648438 4.03125 -4.578125 C 4.207031 -4.359375 4.429688 -4.195312 4.703125 -4.09375 C 4.847656 -4.050781 5.015625 -4.015625 5.203125 -3.984375 C 5.398438 -3.953125 5.617188 -3.9375 5.859375 -3.9375 L 6.40625 -3.9375 C 6.488281 -3.925781 6.578125 -3.921875 6.671875 -3.921875 C 6.765625 -3.921875 6.863281 -3.921875 6.96875 -3.921875 L 13.796875 -3.921875 C 13.898438 -3.890625 13.976562 -3.835938 14.03125 -3.765625 L 13.203125 -3.765625 C 13.273438 -3.703125 13.332031 -3.625 13.375 -3.53125 C 13.414062 -3.4375 13.4375 -3.304688 13.4375 -3.140625 L 13.4375 -1.6875 Z M -0.46875 -17.375 C -0.46875 -17.726562 -0.390625 -17.945312 -0.234375 -18.03125 C -0.078125 -18.125 0.0507812 -18.171875 0.15625 -18.171875 L 11.703125 -18.171875 C 11.796875 -18.171875 11.921875 -18.125 12.078125 -18.03125 C 12.234375 -17.945312 12.3125 -17.738281 12.3125 -17.40625 L 12.3125 -17.3125 L 13.390625 -17.3125 L 13.390625 -16.875 L 12.3125 -16.875 L 12.3125 -15.65625 C 12.3125 -15.632812 12.304688 -15.609375 12.296875 -15.578125 C 12.296875 -15.554688 12.296875 -15.535156 12.296875 -15.515625 L 13.390625 -15.515625 C 13.367188 -15.242188 13.28125 -15.070312 13.125 -15 C 12.976562 -14.925781 12.867188 -14.890625 12.796875 -14.890625 L 0.4375 -14.921875 C 0.351562 -14.921875 0.238281 -14.953125 0.09375 -15.015625 C -0.0507812 -15.078125 -0.140625 -15.242188 -0.171875 -15.515625 L -0.4375 -15.515625 C -0.457031 -15.535156 -0.46875 -15.582031 -0.46875 -15.65625 L -0.46875 -16.875 L 0.90625 -16.875 L 0.90625 -17.3125 L -0.46875 -17.3125 Z M -0.46875 -17.375 "/></g></g></g><g fill="#000000" fill-opacity="1"><g transform="translate(262.798289, 288.758067)"><g><path d="M 16.390625 -0.3125 C 16.378906 -0.25 16.335938 -0.175781 16.265625 -0.09375 C 16.203125 -0.0195312 16.085938 0.015625 15.921875 0.015625 L 14.296875 0.015625 C 14.035156 0.015625 13.847656 -0.113281 13.734375 -0.375 L 14.71875 -0.375 C 14.71875 -0.382812 14.710938 -0.394531 14.703125 -0.40625 C 14.703125 -0.425781 14.703125 -0.445312 14.703125 -0.46875 L 14.546875 -0.8125 L 13.53125 -0.8125 L 12.984375 -2.203125 L 13.546875 -2.203125 L 12.359375 -5.125 L 11.8125 -5.125 L 9.859375 -10.015625 L 10.875 -10.015625 L 10.6875 -10.46875 L 9.65625 -10.46875 L 8.78125 -12.6875 L 9.234375 -12.6875 L 8.6875 -14.078125 L 8.5625 -14.078125 C 8.5625 -14.078125 8.5625 -14.070312 8.5625 -14.0625 L 8.375 -13.65625 L 8.234375 -14.078125 C 8.210938 -14.109375 8.195312 -14.125 8.1875 -14.125 L 8.09375 -14.125 C 8.09375 -14.125 8.09375 -14.117188 8.09375 -14.109375 C 8.09375 -14.109375 8.085938 -14.09375 8.078125 -14.0625 L 7.53125 -12.6875 L 6.9375 -12.6875 L 6.046875 -10.46875 L 6.640625 -10.46875 L 6.46875 -10.015625 L 5.265625 -6.9375 L 7.96875 -6.9375 C 8 -6.9375 8.035156 -6.929688 8.078125 -6.921875 C 8.117188 -6.910156 8.144531 -6.90625 8.15625 -6.90625 C 8.21875 -6.894531 8.28125 -6.863281 8.34375 -6.8125 C 8.34375 -6.8125 8.347656 -6.8125 8.359375 -6.8125 C 8.492188 -6.71875 8.578125 -6.617188 8.609375 -6.515625 L 7.4375 -6.515625 C 7.4375 -6.515625 7.4375 -6.507812 7.4375 -6.5 C 7.4375 -6.488281 7.4375 -6.484375 7.4375 -6.484375 L 7.984375 -5.125 L 9.15625 -5.125 L 9.390625 -4.53125 C 9.492188 -4.300781 9.472656 -4.085938 9.328125 -3.890625 C 9.191406 -3.691406 9 -3.59375 8.75 -3.59375 L 3.921875 -3.59375 L 3.359375 -2.203125 L 2.65625 -2.203125 L 2.140625 -0.8125 L 2.84375 -0.8125 L 2.6875 -0.4375 C 2.664062 -0.425781 2.65625 -0.414062 2.65625 -0.40625 C 2.65625 -0.394531 2.648438 -0.382812 2.640625 -0.375 L 1.890625 -0.375 C 1.742188 -0.113281 1.546875 0.015625 1.296875 0.015625 L -0.359375 0.015625 C -0.523438 0.015625 -0.640625 -0.0195312 -0.703125 -0.09375 C -0.773438 -0.175781 -0.828125 -0.25 -0.859375 -0.3125 C -0.859375 -0.320312 -0.859375 -0.332031 -0.859375 -0.34375 C -0.859375 -0.351562 -0.859375 -0.363281 -0.859375 -0.375 L 0.125 -0.375 C 0.113281 -0.488281 0.140625 -0.632812 0.203125 -0.8125 L -0.796875 -0.8125 C -0.796875 -0.832031 -0.796875 -0.84375 -0.796875 -0.84375 L -0.234375 -2.203125 L 0.3125 -2.203125 L 1.5 -5.125 L 0.921875 -5.125 L 1.46875 -6.515625 L 2.875 -10.015625 L 3.921875 -10.015625 L 4.09375 -10.46875 L 3.078125 -10.46875 L 3.984375 -12.6875 L 4.4375 -12.6875 L 5 -14.078125 L 4.53125 -14.078125 L 5.328125 -16.078125 C 5.367188 -16.179688 5.410156 -16.273438 5.453125 -16.359375 C 5.492188 -16.453125 5.53125 -16.539062 5.5625 -16.625 L 6.21875 -16.625 C 6.46875 -17.113281 6.710938 -17.46875 6.953125 -17.6875 C 6.992188 -17.71875 7.039062 -17.753906 7.09375 -17.796875 C 7.15625 -17.835938 7.21875 -17.875 7.28125 -17.90625 C 7.3125 -17.925781 7.335938 -17.941406 7.359375 -17.953125 C 7.378906 -17.960938 7.394531 -17.976562 7.40625 -18 L 6.78125 -18 C 6.882812 -18.050781 6.984375 -18.101562 7.078125 -18.15625 C 7.078125 -18.15625 7.082031 -18.15625 7.09375 -18.15625 C 7.101562 -18.15625 7.109375 -18.15625 7.109375 -18.15625 C 7.210938 -18.207031 7.3125 -18.242188 7.40625 -18.265625 C 7.4375 -18.273438 7.476562 -18.28125 7.53125 -18.28125 C 7.570312 -18.289062 7.648438 -18.3125 7.765625 -18.34375 C 7.835938 -18.363281 7.898438 -18.375 7.953125 -18.375 C 8.015625 -18.375 8.078125 -18.375 8.140625 -18.375 C 8.210938 -18.375 8.28125 -18.375 8.34375 -18.375 C 8.414062 -18.375 8.476562 -18.363281 8.53125 -18.34375 C 8.625 -18.3125 8.691406 -18.296875 8.734375 -18.296875 C 8.765625 -18.285156 8.789062 -18.28125 8.8125 -18.28125 C 8.84375 -18.28125 8.875 -18.273438 8.90625 -18.265625 C 8.945312 -18.242188 8.988281 -18.222656 9.03125 -18.203125 C 9.082031 -18.191406 9.125 -18.179688 9.15625 -18.171875 C 9.207031 -18.140625 9.234375 -18.125 9.234375 -18.125 C 9.285156 -18.113281 9.332031 -18.097656 9.375 -18.078125 C 9.425781 -18.054688 9.46875 -18.03125 9.5 -18 C 10.0625 -17.675781 10.453125 -17.21875 10.671875 -16.625 L 8.578125 -16.625 C 8.597656 -16.582031 8.613281 -16.539062 8.625 -16.5 C 8.632812 -16.46875 8.648438 -16.4375 8.671875 -16.40625 C 8.679688 -16.363281 8.71875 -16.285156 8.78125 -16.171875 L 9.71875 -16.171875 C 9.71875 -16.140625 9.734375 -16.109375 9.765625 -16.078125 L 10.5625 -14.078125 L 11.71875 -14.078125 L 12.28125 -12.6875 L 11.6875 -12.6875 L 12.578125 -10.46875 L 13.171875 -10.46875 L 14.40625 -7.4375 L 14.78125 -6.515625 L 13.625 -6.515625 L 14.171875 -5.125 L 15.359375 -5.125 L 16.546875 -2.203125 L 15.84375 -2.203125 L 16.390625 -0.84375 C 16.390625 -0.84375 16.390625 -0.832031 16.390625 -0.8125 L 17.09375 -0.8125 C 17.15625 -0.664062 17.171875 -0.519531 17.140625 -0.375 L 16.390625 -0.375 C 16.390625 -0.363281 16.390625 -0.347656 16.390625 -0.328125 C 16.390625 -0.316406 16.390625 -0.3125 16.390625 -0.3125 Z M 16.390625 -0.3125 "/></g></g></g><g fill="#000000" fill-opacity="1"><g transform="translate(285.498239, 288.758067)"><g><path d="M 15.375 -0.421875 C 15.332031 -0.128906 15.164062 0.015625 14.875 0.015625 L 12.828125 0.015625 C 12.609375 0.015625 12.453125 -0.0234375 12.359375 -0.109375 C 12.273438 -0.179688 12.195312 -0.285156 12.125 -0.421875 L 12.078125 -0.5 L 11.71875 -0.5 L 10.03125 -3.46875 L 11 -3.46875 L 10.6875 -4.03125 L 8.515625 -4.03125 L 7.0625 -6.59375 L 9.125 -6.59375 L 8.625 -7.484375 L 3.140625 -7.484375 L 3.140625 -6.59375 L 2.484375 -6.59375 L 2.484375 -4.03125 L 3.140625 -4.03125 L 3.140625 -3.46875 L 2.484375 -3.46875 L 2.484375 -0.75 C 2.484375 -0.707031 2.476562 -0.660156 2.46875 -0.609375 C 2.46875 -0.566406 2.46875 -0.53125 2.46875 -0.5 L 3.125 -0.5 C 3.0625 -0.269531 2.960938 -0.125 2.828125 -0.0625 C 2.703125 -0.0078125 2.601562 0.015625 2.53125 0.015625 L 0.859375 0.015625 C 0.785156 0.015625 0.675781 -0.0078125 0.53125 -0.0625 C 0.394531 -0.125 0.304688 -0.269531 0.265625 -0.5 L -0.109375 -0.5 C -0.109375 -0.53125 -0.109375 -0.566406 -0.109375 -0.609375 C -0.117188 -0.660156 -0.125 -0.707031 -0.125 -0.75 L -0.125 -3.46875 L 0.84375 -3.46875 L 0.84375 -4.03125 L -0.125 -4.03125 L -0.125 -6.59375 L 0.71875 -6.59375 L 0.71875 -8.1875 L -0.125 -8.1875 L -0.125 -9.984375 C -0.125 -10.148438 -0.0976562 -10.28125 -0.046875 -10.375 C -0.00390625 -10.476562 0.046875 -10.5625 0.109375 -10.625 L 1.671875 -10.625 C 1.742188 -10.6875 1.8125 -10.71875 1.875 -10.71875 C 1.945312 -10.726562 2.003906 -10.734375 2.046875 -10.734375 L 11.640625 -10.734375 C 12.140625 -10.734375 12.503906 -10.875 12.734375 -11.15625 L 7.375 -11.15625 C 7.382812 -11.164062 7.390625 -11.175781 7.390625 -11.1875 C 7.398438 -11.195312 7.414062 -11.207031 7.4375 -11.21875 C 7.644531 -11.539062 7.757812 -12.046875 7.78125 -12.734375 L 12.46875 -12.734375 C 12.46875 -12.753906 12.46875 -12.765625 12.46875 -12.765625 C 12.46875 -12.773438 12.46875 -12.785156 12.46875 -12.796875 C 12.46875 -13.460938 12.367188 -13.960938 12.171875 -14.296875 L 11.3125 -14.296875 C 11.28125 -14.359375 11.265625 -14.390625 11.265625 -14.390625 C 11.046875 -14.710938 10.648438 -14.875 10.078125 -14.875 L 0.5 -14.875 C 0.40625 -14.875 0.273438 -14.910156 0.109375 -14.984375 C -0.046875 -15.066406 -0.125 -15.28125 -0.125 -15.625 L -0.125 -15.890625 L 0.640625 -15.890625 L 0.640625 -17.359375 C 0.640625 -17.390625 0.640625 -17.410156 0.640625 -17.421875 C 0.640625 -17.441406 0.640625 -17.457031 0.640625 -17.46875 L -0.109375 -17.46875 C -0.078125 -17.757812 0.0078125 -17.941406 0.15625 -18.015625 C 0.300781 -18.085938 0.414062 -18.125 0.5 -18.125 L 9.546875 -18.125 C 10.578125 -18.125 11.398438 -17.90625 12.015625 -17.46875 L 13.140625 -17.46875 C 13.429688 -17.28125 13.6875 -17.03125 13.90625 -16.71875 C 14.0625 -16.488281 14.210938 -16.210938 14.359375 -15.890625 L 13.390625 -15.890625 C 13.484375 -15.648438 13.566406 -15.398438 13.640625 -15.140625 C 13.710938 -14.890625 13.765625 -14.617188 13.796875 -14.328125 L 14.765625 -14.328125 C 14.796875 -14.085938 14.820312 -13.84375 14.84375 -13.59375 C 14.863281 -13.34375 14.875 -13.078125 14.875 -12.796875 C 14.875 -12.785156 14.875 -12.773438 14.875 -12.765625 C 14.875 -12.765625 14.875 -12.753906 14.875 -12.734375 L 13.390625 -12.734375 C 13.390625 -12.453125 13.378906 -12.179688 13.359375 -11.921875 C 13.335938 -11.660156 13.3125 -11.40625 13.28125 -11.15625 L 17.453125 -11.15625 C 17.429688 -10.976562 17.394531 -10.800781 17.34375 -10.625 L 13.390625 -10.625 C 13.242188 -9.945312 13.003906 -9.367188 12.671875 -8.890625 C 12.460938 -8.617188 12.226562 -8.382812 11.96875 -8.1875 L 13.203125 -8.1875 C 12.703125 -7.84375 12.113281 -7.628906 11.4375 -7.546875 L 11.984375 -6.59375 L 11.328125 -6.59375 L 12.828125 -4.03125 L 13.484375 -4.03125 L 13.796875 -3.46875 L 13.140625 -3.46875 L 14.625 -0.953125 C 14.6875 -0.847656 14.71875 -0.695312 14.71875 -0.5 L 15.375 -0.5 C 15.375 -0.488281 15.375 -0.472656 15.375 -0.453125 C 15.375 -0.441406 15.375 -0.429688 15.375 -0.421875 Z M 15.375 -0.421875 "/></g></g></g></svg>